{
	"asset":{
		"generator":"Khronos glTF Blender I/O v4.5.49",
		"version":"2.0"
	},
	"extensionsUsed":[
		"KHR_materials_specular"
	],
	"scene":0,
	"scenes":[
		{
			"name":"Scene",
			"nodes":[
				109
			]
		}
	],
	"nodes":[
		{
			"mesh":0,
			"name":"CRC1999_SHADOW_CRC1999_SHADOW_0",
			"scale":[
				0.7998822927474976,
				0.7998823523521423,
				1
			]
		},
		{
			"children":[
				0
			],
			"name":"_gltfNode_109",
			"rotation":[
				-0.70710688829422,
				0,
				0,
				0.7071066498756409
			]
		},
		{
			"children":[
				1
			],
			"name":"CRC1999_SHADOW"
		},
		{
			"mesh":1,
			"name":"CRC1999_BDISK_FL_CRC1999_WHEEL_0",
			"translation":[
				-4.799256203114055e-06,
				-3.292735527793411e-06,
				0
			]
		},
		{
			"children":[
				3
			],
			"name":"_gltfNode_38",
			"rotation":[
				0,
				0.7071071863174438,
				0.707106351852417,
				3.19902710543829e-07
			],
			"translation":[
				1.971953272819519,
				8.004433766473085e-06,
				0
			]
		},
		{
			"children":[
				4
			],
			"name":"CRC1999_BDISK_FL",
			"scale":[
				1.1451300382614136,
				1.1451301574707031,
				1.1451301574707031
			],
			"translation":[
				7.62939453125e-06,
				0,
				1.1370291758794338e-05
			]
		},
		{
			"mesh":2,
			"name":"CRC1999_RIM_FL_CRC1999_WHEEL_0",
			"translation":[
				0,
				0,
				-4.367263954918599e-06
			]
		},
		{
			"children":[
				6
			],
			"name":"_gltfNode_35",
			"rotation":[
				0,
				0.7071068286895752,
				0,
				0.7071067094802856
			],
			"translation":[
				-0.016368865966796875,
				0,
				1.0308363926014863e-05
			]
		},
		{
			"children":[
				7
			],
			"name":"CRC1999_RIM_FL",
			"scale":[
				1,
				1.1398900747299194,
				1.1398900747299194
			],
			"translation":[
				7.62939453125e-06,
				0,
				1.1370291758794338e-05
			]
		},
		{
			"mesh":3,
			"name":"CRC1999_TYRE_FL_CRC1999_WHEEL_0",
			"translation":[
				0,
				2.2273807189776562e-06,
				-2.865861006284831e-06
			]
		},
		{
			"children":[
				9
			],
			"name":"_gltfNode_32",
			"rotation":[
				0,
				0.7071068286895752,
				0,
				0.7071067094802856
			],
			"translation":[
				-6.527706318593118e-06,
				0,
				9.670087820268236e-06
			]
		},
		{
			"children":[
				10
			],
			"name":"CRC1999_TYRE_FL",
			"scale":[
				1,
				1.1398900747299194,
				1.1398900747299194
			],
			"translation":[
				7.62939453125e-06,
				0,
				1.1370291758794338e-05
			]
		},
		{
			"children":[
				5,
				8,
				11
			],
			"name":"BONE_WHEEL_FL",
			"translation":[
				0,
				2.66239840129856e-06,
				0
			]
		},
		{
			"mesh":4,
			"name":"CRC1999_CALIPER_FL_CRC1999_WHEEL_0",
			"translation":[
				4.501686817093287e-06,
				0,
				-4.923332198814023e-06
			]
		},
		{
			"children":[
				13
			],
			"name":"_gltfNode_29",
			"rotation":[
				0,
				0.7071068286895752,
				0,
				0.7071067094802856
			],
			"translation":[
				2.249232292175293,
				0.04671744629740715,
				-1.3326443877303973e-05
			]
		},
		{
			"children":[
				14
			],
			"name":"CRC1999_CALIPER_FL",
			"translation":[
				0,
				2.66239840129856e-06,
				0
			]
		},
		{
			"children":[
				12,
				15
			],
			"name":"BONE_CALIPER_FL",
			"scale":[
				1,
				0.8772760033607483,
				0.8772760033607483
			],
			"translation":[
				35.039398193359375,
				16.838199615478516,
				55.4182014465332
			]
		},
		{
			"mesh":5,
			"name":"CRC1999_BDISK_FR_CRC1999_WHEEL_0",
			"translation":[
				0,
				-2.287673851242289e-06,
				0
			]
		},
		{
			"children":[
				17
			],
			"name":"_gltfNode_52",
			"rotation":[
				0,
				0.7071071863174438,
				0.707106351852417,
				3.19902710543829e-07
			],
			"translation":[
				1.9719475507736206,
				7.427159289363772e-06,
				0
			]
		},
		{
			"children":[
				18
			],
			"name":"CRC1999_BDISK_FR",
			"scale":[
				1.1451300382614136,
				1.1451301574707031,
				1.1451301574707031
			],
			"translation":[
				0,
				0,
				1.1370291758794338e-05
			]
		},
		{
			"mesh":6,
			"name":"CRC1999_RIM_FR_CRC1999_WHEEL_0",
			"translation":[
				2.031080384767847e-06,
				0,
				0
			]
		},
		{
			"children":[
				20
			],
			"name":"_gltfNode_46",
			"rotation":[
				0,
				0.7071068286895752,
				0,
				0.7071067094802856
			],
			"translation":[
				-0.016368865966796875,
				0,
				1.0308363926014863e-05
			]
		},
		{
			"children":[
				21
			],
			"name":"CRC1999_RIM_FR",
			"scale":[
				1,
				1.1398900747299194,
				1.1398900747299194
			],
			"translation":[
				0,
				0,
				1.1370291758794338e-05
			]
		},
		{
			"mesh":7,
			"name":"CRC1999_TYRE_FR_CRC1999_WHEEL_0",
			"translation":[
				0,
				0,
				4.763533524965169e-06
			]
		},
		{
			"children":[
				23
			],
			"name":"_gltfNode_49",
			"rotation":[
				0,
				0.7071068286895752,
				0,
				0.7071067094802856
			],
			"translation":[
				-2.7130090529681183e-06,
				0,
				1.0946638212772086e-05
			]
		},
		{
			"children":[
				24
			],
			"name":"CRC1999_TYRE_FR",
			"scale":[
				1,
				1.1398900747299194,
				1.1398900747299194
			],
			"translation":[
				0,
				0,
				1.1370291758794338e-05
			]
		},
		{
			"children":[
				19,
				22,
				25
			],
			"name":"BONE_WHEEL_FR",
			"translation":[
				-1.52587890625e-05,
				2.66239840129856e-06,
				0
			]
		},
		{
			"mesh":8,
			"name":"CRC1999_CALIPER_FR_CRC1999_WHEEL_0",
			"translation":[
				4.366637767816428e-06,
				0,
				0
			]
		},
		{
			"children":[
				27
			],
			"name":"_gltfNode_43",
			"rotation":[
				0,
				0.7071068286895752,
				0,
				0.7071067094802856
			],
			"translation":[
				2.249232292175293,
				0.04671744629740715,
				-1.1405079931137152e-05
			]
		},
		{
			"children":[
				28
			],
			"name":"CRC1999_CALIPER_FR",
			"translation":[
				-1.52587890625e-05,
				2.66239840129856e-06,
				0
			]
		},
		{
			"children":[
				26,
				29
			],
			"name":"BONE_CALIPER_FR",
			"scale":[
				1,
				0.8772760033607483,
				0.8772760033607483
			],
			"translation":[
				-35.039398193359375,
				16.838199615478516,
				55.4182014465332
			]
		},
		{
			"mesh":9,
			"name":"CRC1999_BDISK_RL_CRC1999_WHEEL_0",
			"translation":[
				0,
				0,
				-2.413376932963729e-06
			]
		},
		{
			"children":[
				31
			],
			"name":"_gltfNode_4",
			"rotation":[
				0,
				0.7071071863174438,
				0.707106351852417,
				3.199026821221196e-07
			],
			"translation":[
				1.971950888633728,
				6.08931077294983e-06,
				-4.052101303386735e-06
			]
		},
		{
			"children":[
				32
			],
			"name":"CRC1999_BDISK_RL",
			"scale":[
				1.1451300382614136,
				1.1451301574707031,
				1.1451301574707031
			],
			"translation":[
				3.814697265625e-06,
				0,
				-3.888499122695066e-06
			]
		},
		{
			"mesh":10,
			"name":"CRC1999_RIM_RL_CRC1999_WHEEL_0",
			"translation":[
				-5.52430856259889e-06,
				0,
				-6.209128059708746e-06
			]
		},
		{
			"children":[
				34
			],
			"name":"_gltfNode_7",
			"rotation":[
				0,
				0.7071068286895752,
				0,
				0.7071067094802856
			],
			"translation":[
				-0.016368865966796875,
				0,
				-2.943144409073284e-06
			]
		},
		{
			"children":[
				35
			],
			"name":"CRC1999_RIM_RL",
			"scale":[
				1,
				1.1398900747299194,
				1.1398900747299194
			],
			"translation":[
				3.814697265625e-06,
				0,
				-3.888499122695066e-06
			]
		},
		{
			"mesh":11,
			"name":"CRC1999_TYRE_RL_CRC1999_WHEEL_0",
			"translation":[
				-5.335050445864908e-06,
				-2.3241236704052426e-06,
				0
			]
		},
		{
			"children":[
				37
			],
			"name":"_gltfNode_10",
			"rotation":[
				0,
				0.7071068286895752,
				0,
				0.7071067094802856
			]
		},
		{
			"children":[
				38
			],
			"name":"CRC1999_TYRE_RL",
			"scale":[
				1,
				1.1398900747299194,
				1.1398900747299194
			],
			"translation":[
				3.814697265625e-06,
				0,
				-3.888499122695066e-06
			]
		},
		{
			"children":[
				33,
				36,
				39
			],
			"name":"BONE_WHEEL_RL",
			"translation":[
				0,
				0,
				-1.0756441042758524e-05
			]
		},
		{
			"mesh":12,
			"name":"CRC1999_CALIPER_RL_CRC1999_WHEEL_0",
			"translation":[
				-3.0213111585908337e-06,
				0,
				-4.679449375544209e-06
			]
		},
		{
			"children":[
				41
			],
			"name":"_gltfNode_1",
			"rotation":[
				0,
				0.7071068286895752,
				0,
				0.7071067094802856
			],
			"translation":[
				2.2492287158966064,
				0.04671416059136391,
				-1.337994217465166e-05
			]
		},
		{
			"children":[
				42
			],
			"name":"CRC1999_CALIPER_RL",
			"translation":[
				0,
				0,
				-1.0756441042758524e-05
			]
		},
		{
			"children":[
				40,
				43
			],
			"name":"BONE_CALIPER_RL",
			"scale":[
				1,
				0.8772760033607483,
				0.8772760033607483
			],
			"translation":[
				34.64569854736328,
				16.838199615478516,
				-44.440494537353516
			]
		},
		{
			"mesh":13,
			"name":"CRC1999_BDISK_RR_CRC1999_WHEEL_0",
			"translation":[
				5.316638635122217e-06,
				2.202933956141351e-06,
				0
			]
		},
		{
			"children":[
				45
			],
			"name":"_gltfNode_18",
			"rotation":[
				0,
				0.7071071863174438,
				0.707106351852417,
				3.199026821221196e-07
			],
			"translation":[
				1.9719470739364624,
				9.592928108759224e-06,
				-5.55927408640855e-06
			]
		},
		{
			"children":[
				46
			],
			"name":"CRC1999_BDISK_RR",
			"scale":[
				1.1451300382614136,
				1.1451301574707031,
				1.1451301574707031
			],
			"translation":[
				3.814697265625e-06,
				0,
				-3.888502760673873e-06
			]
		},
		{
			"mesh":14,
			"name":"CRC1999_RIM_RR_CRC1999_WHEEL_0"
		},
		{
			"children":[
				48
			],
			"name":"_gltfNode_24",
			"rotation":[
				0,
				0.7071068286895752,
				0,
				0.7071067094802856
			],
			"translation":[
				-0.016368865966796875,
				0,
				0
			]
		},
		{
			"children":[
				49
			],
			"name":"CRC1999_RIM_RR",
			"scale":[
				1,
				1.1398900747299194,
				1.1398900747299194
			],
			"translation":[
				0,
				4.460029231267981e-06,
				-3.888504579663277e-06
			]
		},
		{
			"mesh":15,
			"name":"CRC1999_TYRE_RR_CRC1999_WHEEL_0",
			"translation":[
				-2.512668288545683e-06,
				0,
				3.242512775614159e-06
			]
		},
		{
			"children":[
				51
			],
			"name":"_gltfNode_21",
			"rotation":[
				0,
				0.7071068286895752,
				0,
				0.7071067094802856
			],
			"translation":[
				-2.3935353965498507e-06,
				0,
				0
			]
		},
		{
			"children":[
				52
			],
			"name":"CRC1999_TYRE_RR",
			"scale":[
				1,
				1.1398900747299194,
				1.1398900747299194
			],
			"translation":[
				0,
				4.460029231267981e-06,
				-3.888504579663277e-06
			]
		},
		{
			"children":[
				47,
				50,
				53
			],
			"name":"BONE_WHEEL_RR",
			"translation":[
				-1.52587890625e-05,
				8.91111540113343e-06,
				-3.127047875750577e-06
			]
		},
		{
			"mesh":16,
			"name":"CRC1999_CALIPER_RR_CRC1999_WHEEL_0"
		},
		{
			"children":[
				55
			],
			"name":"_gltfNode_15",
			"rotation":[
				0,
				0.7071068286895752,
				0,
				0.7071067094802856
			],
			"translation":[
				2.2492287158966064,
				0.04671415686607361,
				-1.5166280718403868e-05
			]
		},
		{
			"children":[
				56
			],
			"name":"CRC1999_CALIPER_RR",
			"translation":[
				-1.52587890625e-05,
				8.91111540113343e-06,
				-3.127047875750577e-06
			]
		},
		{
			"children":[
				54,
				57
			],
			"name":"BONE_CALIPER_RR",
			"scale":[
				1,
				0.8772760033607483,
				0.8772760033607483
			],
			"translation":[
				-34.64569854736328,
				16.838199615478516,
				-44.450801849365234
			]
		},
		{
			"mesh":17,
			"name":"CRC1999_DETAILS_CRC1999_DETAILS_0"
		},
		{
			"children":[
				59
			],
			"name":"_gltfNode_93",
			"rotation":[
				-0.70710688829422,
				0,
				0,
				0.7071066498756409
			]
		},
		{
			"children":[
				60
			],
			"name":"CRC1999_DETAILS"
		},
		{
			"mesh":18,
			"name":"CRC1999_LAMPS_CRC1999_LAMPS_0"
		},
		{
			"children":[
				62
			],
			"name":"_gltfNode_96",
			"rotation":[
				-0.70710688829422,
				0,
				0,
				0.7071066498756409
			]
		},
		{
			"children":[
				63
			],
			"name":"CRC1999_LAMPS"
		},
		{
			"mesh":19,
			"name":"CRC1999_PAINT_CRC1999_PAINT_0"
		},
		{
			"children":[
				65
			],
			"name":"_gltfNode_90",
			"rotation":[
				-0.70710688829422,
				0,
				0,
				0.7071066498756409
			]
		},
		{
			"children":[
				66
			],
			"name":"CRC1999_PAINT"
		},
		{
			"mesh":20,
			"name":"glass_CRC1999_GLASS_0"
		},
		{
			"children":[
				68
			],
			"name":"_gltfNode_87",
			"rotation":[
				-0.70710688829422,
				0,
				0,
				0.7071066498756409
			]
		},
		{
			"children":[
				69
			],
			"name":"glass"
		},
		{
			"mesh":21,
			"name":"mirror_center_body_CRC1999_DETAILS_0",
			"translation":[
				-2.602856966404943e-06,
				0,
				0
			]
		},
		{
			"children":[
				71
			],
			"name":"_gltfNode_84",
			"rotation":[
				0,
				0.7071068286895752,
				0,
				0.7071067094802856
			],
			"translation":[
				37.143001556396484,
				16.686201095581055,
				45.802101135253906
			]
		},
		{
			"children":[
				72
			],
			"name":"mirror_center_body",
			"translation":[
				0,
				-2.030980110168457,
				7.058310031890869
			]
		},
		{
			"mesh":22,
			"name":"mirror_center_glass_CRC1999_MIRRORS_0",
			"translation":[
				0,
				4.423425707500428e-06,
				0
			]
		},
		{
			"children":[
				74
			],
			"name":"_gltfNode_81",
			"rotation":[
				0,
				0.9848077893257141,
				0.17364801466464996,
				5.051020094803266e-15
			],
			"translation":[
				14.820500373840332,
				-26.05290412902832,
				15.953900337219238
			]
		},
		{
			"children":[
				75
			],
			"name":"mirror_center_glass",
			"translation":[
				4.277900006854907e-05,
				63.87409591674805,
				13.68959903717041
			]
		},
		{
			"mesh":23,
			"name":"mirror_left_CRC1999_MIRRORS_0"
		},
		{
			"children":[
				77
			],
			"name":"_gltfNode_99",
			"rotation":[
				-0.70710688829422,
				0,
				0,
				0.7071066498756409
			]
		},
		{
			"children":[
				78
			],
			"name":"mirror_left"
		},
		{
			"mesh":24,
			"name":"mirror_right_CRC1999_MIRRORS_0"
		},
		{
			"children":[
				80
			],
			"name":"_gltfNode_102",
			"rotation":[
				-0.70710688829422,
				0,
				0,
				0.7071066498756409
			]
		},
		{
			"children":[
				81
			],
			"name":"mirror_right"
		},
		{
			"mesh":25,
			"name":"wiper_arm_l003_CRC1999_DETAILS_0",
			"translation":[
				0,
				-5.7220458984375e-06,
				2.384185791015625e-06
			]
		},
		{
			"children":[
				83
			],
			"name":"_gltfNode_57",
			"rotation":[
				0.18530720472335815,
				-0.8227819800376892,
				-0.5241700410842896,
				0.11805430799722672
			],
			"translation":[
				9.556127548217773,
				14.43210220336914,
				-10.5
			]
		},
		{
			"mesh":26,
			"name":"wiper_arm_l004_CRC1999_DETAILS_0",
			"translation":[
				0,
				0,
				2.86102294921875e-06
			]
		},
		{
			"children":[
				85
			],
			"name":"_gltfNode_59",
			"rotation":[
				0.24108143150806427,
				-0.8094394207000732,
				-0.5122755765914917,
				0.15576045215129852
			],
			"translation":[
				7.435621738433838,
				15.534401893615723,
				-12.817605018615723
			]
		},
		{
			"mesh":27,
			"name":"wiper_plastic_l001_CRC1999_DETAILS_0",
			"translation":[
				-2.2649765014648438e-06,
				0,
				0
			]
		},
		{
			"children":[
				87
			],
			"name":"_gltfNode_61",
			"rotation":[
				-0.17447301745414734,
				-0.8758811354637146,
				-0.3818783760070801,
				0.23782457411289215
			],
			"translation":[
				15.517498970031738,
				-65.29989624023438,
				5.437949180603027
			]
		},
		{
			"mesh":28,
			"name":"wiper_rubber_l001_CRC1999_DETAILS_0",
			"translation":[
				0,
				3.4570693969726562e-06,
				0
			]
		},
		{
			"children":[
				89
			],
			"name":"_gltfNode_63",
			"rotation":[
				-0.006509505677968264,
				-0.936516284942627,
				0.18956820666790009,
				0.29488807916641235
			],
			"translation":[
				26.836496353149414,
				-16.41929817199707,
				-15.53439712524414
			]
		},
		{
			"children":[
				90
			],
			"name":"wiper_rubber_l001",
			"translation":[
				-4.887580871582031e-06,
				-1.9669532775878906e-05,
				-3.403425216674805e-05
			]
		},
		{
			"children":[
				88,
				91
			],
			"name":"wiper_plastic_l001",
			"rotation":[
				0.7062047123908997,
				-0.035710033029317856,
				0.03570981323719025,
				0.706204354763031
			],
			"translation":[
				-21.464797973632812,
				1.481062412261963,
				-0.38548940420150757
			]
		},
		{
			"children":[
				86,
				92
			],
			"name":"wiper_arm_l004",
			"rotation":[
				0.0030163803603500128,
				0.07290498912334442,
				0.23617643117904663,
				0.9689667224884033
			],
			"translation":[
				0.0021715164184570312,
				0.00015020370483398438,
				2.201873540878296
			]
		},
		{
			"children":[
				84,
				93
			],
			"name":"wiper_arm_l003",
			"rotation":[
				-0.48016518354415894,
				-0.13943222165107727,
				-0.24150300025939941,
				0.8316708207130432
			],
			"translation":[
				24.843198776245117,
				46.312896728515625,
				39.410797119140625
			]
		},
		{
			"mesh":29,
			"name":"wiper_arm_r003_CRC1999_DETAILS_0",
			"translation":[
				0,
				-2.6226043701171875e-06,
				0
			]
		},
		{
			"children":[
				95
			],
			"name":"_gltfNode_69",
			"rotation":[
				0.18530723452568054,
				-0.8227819800376892,
				-0.5241700410842896,
				0.11805430054664612
			],
			"translation":[
				9.556131362915039,
				14.432097434997559,
				-10.500004768371582
			]
		},
		{
			"mesh":30,
			"name":"wiper_arm_r004_CRC1999_DETAILS_0",
			"translation":[
				0,
				0,
				-2.1457672119140625e-06
			]
		},
		{
			"children":[
				97
			],
			"name":"_gltfNode_71",
			"rotation":[
				0.24108144640922546,
				-0.8094394207000732,
				-0.5122755765914917,
				0.15576042234897614
			],
			"translation":[
				7.435616970062256,
				15.53439998626709,
				-12.817585945129395
			]
		},
		{
			"mesh":31,
			"name":"wiper_plastic_r001_CRC1999_DETAILS_0"
		},
		{
			"children":[
				99
			],
			"name":"_gltfNode_73",
			"rotation":[
				-0.17447300255298615,
				-0.8758810758590698,
				-0.3818783164024353,
				0.23782454431056976
			],
			"translation":[
				15.517500877380371,
				-65.29989624023438,
				5.437948226928711
			]
		},
		{
			"mesh":32,
			"name":"wiper_rubber_r001_CRC1999_DETAILS_0",
			"translation":[
				0,
				0,
				4.291534423828125e-06
			]
		},
		{
			"children":[
				101
			],
			"name":"_gltfNode_75",
			"rotation":[
				-0.006509515922516584,
				-0.936516284942627,
				0.18956825137138367,
				0.29488807916641235
			],
			"translation":[
				26.836498260498047,
				-16.419296264648438,
				-15.534399032592773
			]
		},
		{
			"children":[
				102
			],
			"name":"wiper_rubber_r001",
			"translation":[
				7.152557373046875e-06,
				1.537799835205078e-05,
				-1.621246337890625e-05
			]
		},
		{
			"children":[
				100,
				103
			],
			"name":"wiper_plastic_r001",
			"rotation":[
				0.7057762145996094,
				-0.04336197301745415,
				0.04336170479655266,
				0.705775797367096
			],
			"translation":[
				-23.3302001953125,
				1.4811005592346191,
				-0.38548195362091064
			]
		},
		{
			"children":[
				98,
				104
			],
			"name":"wiper_arm_r004",
			"rotation":[
				-0.006648689974099398,
				0.026323694735765457,
				0.013989285565912724,
				0.999533474445343
			],
			"translation":[
				0.002173304557800293,
				0.00014668703079223633,
				2.201864242553711
			]
		},
		{
			"children":[
				96,
				105
			],
			"name":"wiper_arm_r003",
			"rotation":[
				-0.4913184940814972,
				-0.09276855736970901,
				-0.1606789231300354,
				0.8509891033172607
			],
			"translation":[
				1.9195499420166016,
				46.54349899291992,
				41.52959442138672
			]
		},
		{
			"children":[
				16,
				30,
				44,
				58,
				61,
				64,
				67,
				70,
				73,
				76,
				79,
				82,
				94,
				106
			],
			"name":"ROOT"
		},
		{
			"children":[
				2,
				107
			],
			"name":"RootNode"
		},
		{
			"children":[
				108
			],
			"name":"de3290830779492aa7e14a75531df683.fbx",
			"scale":[
				0.02539999969303608,
				0.02539999969303608,
				0.02539999969303608
			]
		}
	],
	"materials":[
		{
			"alphaMode":"BLEND",
			"doubleSided":true,
			"extensions":{
				"KHR_materials_specular":{
					"specularFactor":0
				}
			},
			"name":"488_SHADOW",
			"pbrMetallicRoughness":{
				"baseColorFactor":[
					0,
					0,
					0,
					1
				],
				"baseColorTexture":{
					"index":0
				},
				"metallicFactor":0
			}
		},
		{
			"doubleSided":true,
			"name":"CRC1999_WHEEL",
			"normalTexture":{
				"index":1,
				"scale":2
			},
			"pbrMetallicRoughness":{
				"baseColorTexture":{
					"index":2
				},
				"metallicFactor":0,
				"metallicRoughnessTexture":{
					"index":3
				}
			}
		},
		{
			"doubleSided":true,
			"name":"CRC1999_WHEEL.001",
			"normalTexture":{
				"index":4,
				"scale":2
			},
			"pbrMetallicRoughness":{
				"baseColorTexture":{
					"index":5
				},
				"metallicFactor":0,
				"metallicRoughnessTexture":{
					"index":6
				}
			}
		},
		{
			"doubleSided":true,
			"name":"CRC1999_DETAILS",
			"pbrMetallicRoughness":{
				"baseColorTexture":{
					"index":7
				},
				"metallicFactor":0,
				"metallicRoughnessTexture":{
					"index":8
				}
			}
		},
		{
			"alphaMode":"BLEND",
			"doubleSided":true,
			"name":"CRC1999_LAMPS",
			"normalTexture":{
				"index":9,
				"scale":2
			},
			"pbrMetallicRoughness":{
				"baseColorTexture":{
					"index":10
				}
			}
		},
		{
			"doubleSided":true,
			"name":"CRC1999_PAINT",
			"occlusionTexture":{
				"index":11
			},
			"pbrMetallicRoughness":{
				"baseColorTexture":{
					"index":12
				},
				"metallicFactor":0,
				"metallicRoughnessTexture":{
					"index":11
				},
				"roughnessFactor":0
			}
		},
		{
			"alphaMode":"BLEND",
			"doubleSided":true,
			"name":"CRC1999_GLASS",
			"pbrMetallicRoughness":{
				"baseColorTexture":{
					"index":13
				}
			}
		},
		{
			"doubleSided":true,
			"name":"CRC1999_MIRRORS"
		}
	],
	"meshes":[
		{
			"name":"CRC1999_SHADOW_CRC1999_SHADOW_0",
			"primitives":[
				{
					"attributes":{
						"POSITION":0,
						"NORMAL":1,
						"TEXCOORD_0":2
					},
					"indices":3,
					"material":0
				}
			]
		},
		{
			"name":"CRC1999_BDISK_FL_CRC1999_WHEEL_0",
			"primitives":[
				{
					"attributes":{
						"POSITION":4,
						"NORMAL":5,
						"TEXCOORD_0":6
					},
					"indices":7,
					"material":1
				}
			]
		},
		{
			"name":"CRC1999_RIM_FL_CRC1999_WHEEL_0",
			"primitives":[
				{
					"attributes":{
						"POSITION":8,
						"NORMAL":9,
						"TEXCOORD_0":10
					},
					"indices":11,
					"material":1
				}
			]
		},
		{
			"name":"CRC1999_TYRE_FL_CRC1999_WHEEL_0",
			"primitives":[
				{
					"attributes":{
						"POSITION":12,
						"NORMAL":13,
						"TEXCOORD_0":14
					},
					"indices":15,
					"material":2
				}
			]
		},
		{
			"name":"CRC1999_CALIPER_FL_CRC1999_WHEEL_0",
			"primitives":[
				{
					"attributes":{
						"POSITION":16,
						"NORMAL":17,
						"TEXCOORD_0":18
					},
					"indices":19,
					"material":1
				}
			]
		},
		{
			"name":"CRC1999_BDISK_FR_CRC1999_WHEEL_0",
			"primitives":[
				{
					"attributes":{
						"POSITION":20,
						"NORMAL":21,
						"TEXCOORD_0":22
					},
					"indices":23,
					"material":1
				}
			]
		},
		{
			"name":"CRC1999_RIM_FR_CRC1999_WHEEL_0",
			"primitives":[
				{
					"attributes":{
						"POSITION":24,
						"NORMAL":25,
						"TEXCOORD_0":26
					},
					"indices":27,
					"material":1
				}
			]
		},
		{
			"name":"CRC1999_TYRE_FR_CRC1999_WHEEL_0",
			"primitives":[
				{
					"attributes":{
						"POSITION":28,
						"NORMAL":29,
						"TEXCOORD_0":30
					},
					"indices":31,
					"material":2
				}
			]
		},
		{
			"name":"CRC1999_CALIPER_FR_CRC1999_WHEEL_0",
			"primitives":[
				{
					"attributes":{
						"POSITION":32,
						"NORMAL":33,
						"TEXCOORD_0":34
					},
					"indices":35,
					"material":1
				}
			]
		},
		{
			"name":"CRC1999_BDISK_RL_CRC1999_WHEEL_0",
			"primitives":[
				{
					"attributes":{
						"POSITION":36,
						"NORMAL":37,
						"TEXCOORD_0":38
					},
					"indices":7,
					"material":1
				}
			]
		},
		{
			"name":"CRC1999_RIM_RL_CRC1999_WHEEL_0",
			"primitives":[
				{
					"attributes":{
						"POSITION":39,
						"NORMAL":40,
						"TEXCOORD_0":41
					},
					"indices":11,
					"material":1
				}
			]
		},
		{
			"name":"CRC1999_TYRE_RL_CRC1999_WHEEL_0",
			"primitives":[
				{
					"attributes":{
						"POSITION":42,
						"NORMAL":43,
						"TEXCOORD_0":44
					},
					"indices":15,
					"material":2
				}
			]
		},
		{
			"name":"CRC1999_CALIPER_RL_CRC1999_WHEEL_0",
			"primitives":[
				{
					"attributes":{
						"POSITION":45,
						"NORMAL":46,
						"TEXCOORD_0":47
					},
					"indices":19,
					"material":1
				}
			]
		},
		{
			"name":"CRC1999_BDISK_RR_CRC1999_WHEEL_0",
			"primitives":[
				{
					"attributes":{
						"POSITION":48,
						"NORMAL":49,
						"TEXCOORD_0":50
					},
					"indices":23,
					"material":1
				}
			]
		},
		{
			"name":"CRC1999_RIM_RR_CRC1999_WHEEL_0",
			"primitives":[
				{
					"attributes":{
						"POSITION":51,
						"NORMAL":52,
						"TEXCOORD_0":53
					},
					"indices":27,
					"material":1
				}
			]
		},
		{
			"name":"CRC1999_TYRE_RR_CRC1999_WHEEL_0",
			"primitives":[
				{
					"attributes":{
						"POSITION":54,
						"NORMAL":55,
						"TEXCOORD_0":56
					},
					"indices":31,
					"material":2
				}
			]
		},
		{
			"name":"CRC1999_CALIPER_RR_CRC1999_WHEEL_0",
			"primitives":[
				{
					"attributes":{
						"POSITION":57,
						"NORMAL":58,
						"TEXCOORD_0":59
					},
					"indices":35,
					"material":1
				}
			]
		},
		{
			"name":"CRC1999_DETAILS_CRC1999_DETAILS_0",
			"primitives":[
				{
					"attributes":{
						"POSITION":60,
						"NORMAL":61,
						"TEXCOORD_0":62
					},
					"indices":63,
					"material":3
				}
			]
		},
		{
			"name":"CRC1999_LAMPS_CRC1999_LAMPS_0",
			"primitives":[
				{
					"attributes":{
						"POSITION":64,
						"NORMAL":65,
						"TEXCOORD_0":66
					},
					"indices":67,
					"material":4
				}
			]
		},
		{
			"name":"CRC1999_PAINT_CRC1999_PAINT_0",
			"primitives":[
				{
					"attributes":{
						"POSITION":68,
						"NORMAL":69,
						"TEXCOORD_0":70
					},
					"indices":71,
					"material":5
				}
			]
		},
		{
			"name":"glass_CRC1999_GLASS_0",
			"primitives":[
				{
					"attributes":{
						"POSITION":72,
						"NORMAL":73,
						"TEXCOORD_0":74
					},
					"indices":75,
					"material":6
				}
			]
		},
		{
			"name":"mirror_center_body_CRC1999_DETAILS_0",
			"primitives":[
				{
					"attributes":{
						"POSITION":76,
						"NORMAL":77,
						"TEXCOORD_0":78
					},
					"indices":79,
					"material":3
				}
			]
		},
		{
			"name":"mirror_center_glass_CRC1999_MIRRORS_0",
			"primitives":[
				{
					"attributes":{
						"POSITION":80,
						"NORMAL":81,
						"TEXCOORD_0":82
					},
					"indices":83,
					"material":7
				}
			]
		},
		{
			"name":"mirror_left_CRC1999_MIRRORS_0",
			"primitives":[
				{
					"attributes":{
						"POSITION":84,
						"NORMAL":85,
						"TEXCOORD_0":86
					},
					"indices":87,
					"material":7
				}
			]
		},
		{
			"name":"mirror_right_CRC1999_MIRRORS_0",
			"primitives":[
				{
					"attributes":{
						"POSITION":88,
						"NORMAL":89,
						"TEXCOORD_0":90
					},
					"indices":91,
					"material":7
				}
			]
		},
		{
			"name":"wiper_arm_l003_CRC1999_DETAILS_0",
			"primitives":[
				{
					"attributes":{
						"POSITION":92,
						"NORMAL":93,
						"TEXCOORD_0":94
					},
					"indices":95,
					"material":3
				}
			]
		},
		{
			"name":"wiper_arm_l004_CRC1999_DETAILS_0",
			"primitives":[
				{
					"attributes":{
						"POSITION":96,
						"NORMAL":97,
						"TEXCOORD_0":98
					},
					"indices":99,
					"material":3
				}
			]
		},
		{
			"name":"wiper_plastic_l001_CRC1999_DETAILS_0",
			"primitives":[
				{
					"attributes":{
						"POSITION":100,
						"NORMAL":101,
						"TEXCOORD_0":102
					},
					"indices":103,
					"material":3
				}
			]
		},
		{
			"name":"wiper_rubber_l001_CRC1999_DETAILS_0",
			"primitives":[
				{
					"attributes":{
						"POSITION":104,
						"NORMAL":105,
						"TEXCOORD_0":106
					},
					"indices":107,
					"material":3
				}
			]
		},
		{
			"name":"wiper_arm_r003_CRC1999_DETAILS_0",
			"primitives":[
				{
					"attributes":{
						"POSITION":108,
						"NORMAL":109,
						"TEXCOORD_0":110
					},
					"indices":95,
					"material":3
				}
			]
		},
		{
			"name":"wiper_arm_r004_CRC1999_DETAILS_0",
			"primitives":[
				{
					"attributes":{
						"POSITION":111,
						"NORMAL":112,
						"TEXCOORD_0":113
					},
					"indices":99,
					"material":3
				}
			]
		},
		{
			"name":"wiper_plastic_r001_CRC1999_DETAILS_0",
			"primitives":[
				{
					"attributes":{
						"POSITION":114,
						"NORMAL":115,
						"TEXCOORD_0":116
					},
					"indices":103,
					"material":3
				}
			]
		},
		{
			"name":"wiper_rubber_r001_CRC1999_DETAILS_0",
			"primitives":[
				{
					"attributes":{
						"POSITION":117,
						"NORMAL":118,
						"TEXCOORD_0":119
					},
					"indices":107,
					"material":3
				}
			]
		}
	],
	"textures":[
		{
			"sampler":0,
			"source":0
		},
		{
			"sampler":0,
			"source":1
		},
		{
			"sampler":0,
			"source":2
		},
		{
			"sampler":0,
			"source":3
		},
		{
			"sampler":0,
			"source":1
		},
		{
			"sampler":0,
			"source":2
		},
		{
			"sampler":0,
			"source":3
		},
		{
			"sampler":0,
			"source":4
		},
		{
			"sampler":0,
			"source":5
		},
		{
			"sampler":0,
			"source":6
		},
		{
			"sampler":0,
			"source":7
		},
		{
			"sampler":0,
			"source":8
		},
		{
			"sampler":0,
			"source":8
		},
		{
			"sampler":0,
			"source":9
		}
	],
	"images":[
		{
			"mimeType":"image/png",
			"name":"488_SHADOW_baseColor",
			"uri":"488_SHADOW_baseColor.png"
		},
		{
			"mimeType":"image/png",
			"name":"d53f7f7bb50a444abe76d5819113cfa2_N_CRC1999_WHEEL_NORMAL",
			"uri":"d53f7f7bb50a444abe76d5819113cfa2_N_CRC1999_WHEEL_NORMAL.png"
		},
		{
			"mimeType":"image/png",
			"name":"845bed0a31334f76bc092f4de87e0b37_RGB_CRC1999_WHEEL",
			"uri":"845bed0a31334f76bc092f4de87e0b37_RGB_CRC1999_WHEEL.png"
		},
		{
			"mimeType":"image/png",
			"name":"70226b065efe4f19835d8cf93c43df0a_R_CRC1999_WHEEL_SMOOTH",
			"uri":"70226b065efe4f19835d8cf93c43df0a_R_CRC1999_WHEEL_SMOOTH.png"
		},
		{
			"mimeType":"image/png",
			"name":"f434589933b24f62a955dfb6fa48961f_RGB_CRC1999_DETAILS",
			"uri":"f434589933b24f62a955dfb6fa48961f_RGB_CRC1999_DETAILS.png"
		},
		{
			"mimeType":"image/png",
			"name":"7e059dbe8b744f6b8f64f6e3a1372da1_R_CRC1999_DETAILS_SMOOTH",
			"uri":"7e059dbe8b744f6b8f64f6e3a1372da1_R_CRC1999_DETAILS_SMOOTH.png"
		},
		{
			"mimeType":"image/png",
			"name":"d89658f8ab7e417594f4c2bb968dfac5_N_CRC1999_LAMPS_NORMAL",
			"uri":"d89658f8ab7e417594f4c2bb968dfac5_N_CRC1999_LAMPS_NORMAL.png"
		},
		{
			"mimeType":"image/png",
			"name":"6275181211ea4bdf80b4da3c40a22dbb_A_CRC1999_LAMPS",
			"uri":"6275181211ea4bdf80b4da3c40a22dbb_A_CRC1999_LAMPS.png"
		},
		{
			"mimeType":"image/png",
			"name":"652bcdeccce742cd8b990ce961da7cbe_RGB_CRC1999_PAINT",
			"uri":"652bcdeccce742cd8b990ce961da7cbe_RGB_CRC1999_PAINT.png"
		},
		{
			"mimeType":"image/png",
			"name":"072595719cc4443982e421e4b1078863_A_CRC1999_GLASS",
			"uri":"072595719cc4443982e421e4b1078863_A_CRC1999_GLASS.png"
		}
	],
	"accessors":[
		{
			"bufferView":0,
			"componentType":5126,
			"count":4,
			"max":[
				157.4812774658203,
				157.4812774658203,
				0
			],
			"min":[
				-157.47999572753906,
				-157.47999572753906,
				0
			],
			"type":"VEC3"
		},
		{
			"bufferView":1,
			"componentType":5126,
			"count":4,
			"type":"VEC3"
		},
		{
			"bufferView":2,
			"componentType":5126,
			"count":4,
			"type":"VEC2"
		},
		{
			"bufferView":3,
			"componentType":5123,
			"count":6,
			"type":"SCALAR"
		},
		{
			"bufferView":4,
			"componentType":5126,
			"count":393,
			"max":[
				2.1627776622772217,
				9.228379249572754,
				9.177807807922363
			],
			"min":[
				-0.7002180218696594,
				-9.228560447692871,
				-9.178009986877441
			],
			"type":"VEC3"
		},
		{
			"bufferView":5,
			"componentType":5126,
			"count":393,
			"type":"VEC3"
		},
		{
			"bufferView":6,
			"componentType":5126,
			"count":393,
			"type":"VEC2"
		},
		{
			"bufferView":7,
			"componentType":5123,
			"count":720,
			"type":"SCALAR"
		},
		{
			"bufferView":8,
			"componentType":5126,
			"count":3998,
			"max":[
				12.167630195617676,
				12.167630195617676,
				6.417410850524902
			],
			"min":[
				-12.167699813842773,
				-12.167699813842773,
				-6.502649784088135
			],
			"type":"VEC3"
		},
		{
			"bufferView":9,
			"componentType":5126,
			"count":3998,
			"type":"VEC3"
		},
		{
			"bufferView":10,
			"componentType":5126,
			"count":3998,
			"type":"VEC2"
		},
		{
			"bufferView":11,
			"componentType":5123,
			"count":17160,
			"type":"SCALAR"
		},
		{
			"bufferView":12,
			"componentType":5126,
			"count":763,
			"max":[
				17.0864315032959,
				17.0864315032959,
				6.720912456512451
			],
			"min":[
				-17.08679962158203,
				-17.08679962158203,
				-6.721020221710205
			],
			"type":"VEC3"
		},
		{
			"bufferView":13,
			"componentType":5126,
			"count":763,
			"type":"VEC3"
		},
		{
			"bufferView":14,
			"componentType":5126,
			"count":763,
			"type":"VEC2"
		},
		{
			"bufferView":15,
			"componentType":5123,
			"count":3456,
			"type":"SCALAR"
		},
		{
			"bufferView":16,
			"componentType":5126,
			"count":584,
			"max":[
				12.217060089111328,
				9.972563743591309,
				0.7868450284004211
			],
			"min":[
				6.2411298751831055,
				-9.972769737243652,
				-4.167550086975098
			],
			"type":"VEC3"
		},
		{
			"bufferView":17,
			"componentType":5126,
			"count":584,
			"type":"VEC3"
		},
		{
			"bufferView":18,
			"componentType":5126,
			"count":584,
			"type":"VEC2"
		},
		{
			"bufferView":19,
			"componentType":5123,
			"count":1224,
			"type":"SCALAR"
		},
		{
			"bufferView":20,
			"componentType":5126,
			"count":389,
			"max":[
				4.644096374511719,
				9.228379249572754,
				9.177827835083008
			],
			"min":[
				1.781059980392456,
				-9.228560447692871,
				-9.178009986877441
			],
			"type":"VEC3"
		},
		{
			"bufferView":21,
			"componentType":5126,
			"count":389,
			"type":"VEC3"
		},
		{
			"bufferView":22,
			"componentType":5126,
			"count":389,
			"type":"VEC2"
		},
		{
			"bufferView":23,
			"componentType":5123,
			"count":720,
			"type":"SCALAR"
		},
		{
			"bufferView":24,
			"componentType":5126,
			"count":4009,
			"max":[
				12.167630195617676,
				12.167630195617676,
				6.535370826721191
			],
			"min":[
				-12.167699813842773,
				-12.167699813842773,
				-6.384689807891846
			],
			"type":"VEC3"
		},
		{
			"bufferView":25,
			"componentType":5126,
			"count":4009,
			"type":"VEC3"
		},
		{
			"bufferView":26,
			"componentType":5126,
			"count":4009,
			"type":"VEC2"
		},
		{
			"bufferView":27,
			"componentType":5123,
			"count":17160,
			"type":"SCALAR"
		},
		{
			"bufferView":28,
			"componentType":5126,
			"count":763,
			"max":[
				17.0864315032959,
				17.0864315032959,
				6.720892429351807
			],
			"min":[
				-17.08679962158203,
				-17.08679962158203,
				-6.721039772033691
			],
			"type":"VEC3"
		},
		{
			"bufferView":29,
			"componentType":5126,
			"count":763,
			"type":"VEC3"
		},
		{
			"bufferView":30,
			"componentType":5126,
			"count":763,
			"type":"VEC2"
		},
		{
			"bufferView":31,
			"componentType":5123,
			"count":3456,
			"type":"SCALAR"
		},
		{
			"bufferView":32,
			"componentType":5126,
			"count":592,
			"max":[
				12.217070579528809,
				9.972583770751953,
				-0.3309444785118103
			],
			"min":[
				6.241119861602783,
				-9.972769737243652,
				-5.285359859466553
			],
			"type":"VEC3"
		},
		{
			"bufferView":33,
			"componentType":5126,
			"count":592,
			"type":"VEC3"
		},
		{
			"bufferView":34,
			"componentType":5126,
			"count":592,
			"type":"VEC2"
		},
		{
			"bufferView":35,
			"componentType":5123,
			"count":1224,
			"type":"SCALAR"
		},
		{
			"bufferView":36,
			"componentType":5126,
			"count":393,
			"max":[
				2.1627776622772217,
				9.228379249572754,
				9.177807807922363
			],
			"min":[
				-0.7002180218696594,
				-9.228560447692871,
				-9.178009986877441
			],
			"type":"VEC3"
		},
		{
			"bufferView":37,
			"componentType":5126,
			"count":393,
			"type":"VEC3"
		},
		{
			"bufferView":38,
			"componentType":5126,
			"count":393,
			"type":"VEC2"
		},
		{
			"bufferView":39,
			"componentType":5126,
			"count":3998,
			"max":[
				12.167630195617676,
				12.167630195617676,
				6.417410850524902
			],
			"min":[
				-12.167699813842773,
				-12.167699813842773,
				-6.502649784088135
			],
			"type":"VEC3"
		},
		{
			"bufferView":40,
			"componentType":5126,
			"count":3998,
			"type":"VEC3"
		},
		{
			"bufferView":41,
			"componentType":5126,
			"count":3998,
			"type":"VEC2"
		},
		{
			"bufferView":42,
			"componentType":5126,
			"count":763,
			"max":[
				17.0864315032959,
				17.0864315032959,
				6.720912456512451
			],
			"min":[
				-17.08679962158203,
				-17.08679962158203,
				-6.721020221710205
			],
			"type":"VEC3"
		},
		{
			"bufferView":43,
			"componentType":5126,
			"count":763,
			"type":"VEC3"
		},
		{
			"bufferView":44,
			"componentType":5126,
			"count":763,
			"type":"VEC2"
		},
		{
			"bufferView":45,
			"componentType":5126,
			"count":584,
			"max":[
				12.217060089111328,
				9.972563743591309,
				0.7868450284004211
			],
			"min":[
				6.2411298751831055,
				-9.972769737243652,
				-4.167550086975098
			],
			"type":"VEC3"
		},
		{
			"bufferView":46,
			"componentType":5126,
			"count":584,
			"type":"VEC3"
		},
		{
			"bufferView":47,
			"componentType":5126,
			"count":584,
			"type":"VEC2"
		},
		{
			"bufferView":48,
			"componentType":5126,
			"count":389,
			"max":[
				4.644096374511719,
				9.228379249572754,
				9.177827835083008
			],
			"min":[
				1.781059980392456,
				-9.228560447692871,
				-9.178009986877441
			],
			"type":"VEC3"
		},
		{
			"bufferView":49,
			"componentType":5126,
			"count":389,
			"type":"VEC3"
		},
		{
			"bufferView":50,
			"componentType":5126,
			"count":389,
			"type":"VEC2"
		},
		{
			"bufferView":51,
			"componentType":5126,
			"count":4009,
			"max":[
				12.167630195617676,
				12.167630195617676,
				6.535370826721191
			],
			"min":[
				-12.167699813842773,
				-12.167699813842773,
				-6.384689807891846
			],
			"type":"VEC3"
		},
		{
			"bufferView":52,
			"componentType":5126,
			"count":4009,
			"type":"VEC3"
		},
		{
			"bufferView":53,
			"componentType":5126,
			"count":4009,
			"type":"VEC2"
		},
		{
			"bufferView":54,
			"componentType":5126,
			"count":763,
			"max":[
				17.0864315032959,
				17.0864315032959,
				6.720892429351807
			],
			"min":[
				-17.08679962158203,
				-17.08679962158203,
				-6.721039772033691
			],
			"type":"VEC3"
		},
		{
			"bufferView":55,
			"componentType":5126,
			"count":763,
			"type":"VEC3"
		},
		{
			"bufferView":56,
			"componentType":5126,
			"count":763,
			"type":"VEC2"
		},
		{
			"bufferView":57,
			"componentType":5126,
			"count":592,
			"max":[
				12.217070579528809,
				9.972583770751953,
				-0.3309444785118103
			],
			"min":[
				6.241119861602783,
				-9.972769737243652,
				-5.285359859466553
			],
			"type":"VEC3"
		},
		{
			"bufferView":58,
			"componentType":5126,
			"count":592,
			"type":"VEC3"
		},
		{
			"bufferView":59,
			"componentType":5126,
			"count":592,
			"type":"VEC2"
		},
		{
			"bufferView":60,
			"componentType":5126,
			"count":22544,
			"max":[
				41.80894470214844,
				80.73822021484375,
				73.22441101074219
			],
			"min":[
				-41.808998107910156,
				-87.15058135986328,
				6.427090167999268
			],
			"type":"VEC3"
		},
		{
			"bufferView":61,
			"componentType":5126,
			"count":22544,
			"type":"VEC3"
		},
		{
			"bufferView":62,
			"componentType":5126,
			"count":22544,
			"type":"VEC2"
		},
		{
			"bufferView":63,
			"componentType":5123,
			"count":56472,
			"type":"SCALAR"
		},
		{
			"bufferView":64,
			"componentType":5126,
			"count":1054,
			"max":[
				41.02871322631836,
				77.14311981201172,
				52.39281463623047
			],
			"min":[
				-41.02888870239258,
				-84.53929901123047,
				21.2744083404541
			],
			"type":"VEC3"
		},
		{
			"bufferView":65,
			"componentType":5126,
			"count":1054,
			"type":"VEC3"
		},
		{
			"bufferView":66,
			"componentType":5126,
			"count":1054,
			"type":"VEC2"
		},
		{
			"bufferView":67,
			"componentType":5123,
			"count":4968,
			"type":"SCALAR"
		},
		{
			"bufferView":68,
			"componentType":5126,
			"count":22419,
			"max":[
				42.49369430541992,
				79.907958984375,
				74.91535949707031
			],
			"min":[
				-42.49380111694336,
				-88.02439880371094,
				6.483458042144775
			],
			"type":"VEC3"
		},
		{
			"bufferView":69,
			"componentType":5126,
			"count":22419,
			"type":"VEC3"
		},
		{
			"bufferView":70,
			"componentType":5126,
			"count":22419,
			"type":"VEC2"
		},
		{
			"bufferView":71,
			"componentType":5123,
			"count":116844,
			"type":"SCALAR"
		},
		{
			"bufferView":72,
			"componentType":5126,
			"count":1573,
			"max":[
				38.23175811767578,
				77.33023071289062,
				70.97664642333984
			],
			"min":[
				-38.23189163208008,
				-83.36048126220703,
				28.112607955932617
			],
			"type":"VEC3"
		},
		{
			"bufferView":73,
			"componentType":5126,
			"count":1573,
			"type":"VEC3"
		},
		{
			"bufferView":74,
			"componentType":5126,
			"count":1573,
			"type":"VEC2"
		},
		{
			"bufferView":75,
			"componentType":5123,
			"count":7266,
			"type":"SCALAR"
		},
		{
			"bufferView":76,
			"componentType":5126,
			"count":1739,
			"max":[
				39.25775146484375,
				53.330753326416016,
				-32.77582550048828
			],
			"min":[
				35.548099517822266,
				47.40530014038086,
				-41.510101318359375
			],
			"type":"VEC3"
		},
		{
			"bufferView":77,
			"componentType":5126,
			"count":1739,
			"type":"VEC3"
		},
		{
			"bufferView":78,
			"componentType":5126,
			"count":1739,
			"type":"VEC2"
		},
		{
			"bufferView":79,
			"componentType":5123,
			"count":7656,
			"type":"SCALAR"
		},
		{
			"bufferView":80,
			"componentType":5126,
			"count":93,
			"max":[
				19.043256759643555,
				20.22759437561035,
				24.339975357055664
			],
			"min":[
				10.597599983215332,
				17.822799682617188,
				23.46470069885254
			],
			"type":"VEC3"
		},
		{
			"bufferView":81,
			"componentType":5126,
			"count":93,
			"type":"VEC3"
		},
		{
			"bufferView":82,
			"componentType":5126,
			"count":93,
			"type":"VEC2"
		},
		{
			"bufferView":83,
			"componentType":5123,
			"count":408,
			"type":"SCALAR"
		},
		{
			"bufferView":84,
			"componentType":5126,
			"count":83,
			"max":[
				38.49052810668945,
				-23.812759399414062,
				54.48064422607422
			],
			"min":[
				33.131900787353516,
				-24.170299530029297,
				46.66590118408203
			],
			"type":"VEC3"
		},
		{
			"bufferView":85,
			"componentType":5126,
			"count":83,
			"type":"VEC3"
		},
		{
			"bufferView":86,
			"componentType":5126,
			"count":83,
			"type":"VEC2"
		},
		{
			"bufferView":87,
			"componentType":5123,
			"count":378,
			"type":"SCALAR"
		},
		{
			"bufferView":88,
			"componentType":5126,
			"count":83,
			"max":[
				-33.131874084472656,
				-23.812759399414062,
				54.48064422607422
			],
			"min":[
				-38.490501403808594,
				-24.170299530029297,
				46.66590118408203
			],
			"type":"VEC3"
		},
		{
			"bufferView":89,
			"componentType":5126,
			"count":83,
			"type":"VEC3"
		},
		{
			"bufferView":90,
			"componentType":5126,
			"count":83,
			"type":"VEC2"
		},
		{
			"bufferView":91,
			"componentType":5123,
			"count":378,
			"type":"SCALAR"
		},
		{
			"bufferView":92,
			"componentType":5126,
			"count":48,
			"max":[
				15.429696083068848,
				7.794748306274414,
				-12.266562461853027
			],
			"min":[
				14.211000442504883,
				6.073530197143555,
				-13.785799980163574
			],
			"type":"VEC3"
		},
		{
			"bufferView":93,
			"componentType":5126,
			"count":48,
			"type":"VEC3"
		},
		{
			"bufferView":94,
			"componentType":5126,
			"count":48,
			"type":"VEC2"
		},
		{
			"bufferView":95,
			"componentType":5123,
			"count":216,
			"type":"SCALAR"
		},
		{
			"bufferView":96,
			"componentType":5126,
			"count":272,
			"max":[
				32.27141571044922,
				13.066729545593262,
				-1.1758877038955688
			],
			"min":[
				14.041999816894531,
				6.948840141296387,
				-14.166600227355957
			],
			"type":"VEC3"
		},
		{
			"bufferView":97,
			"componentType":5126,
			"count":272,
			"type":"VEC3"
		},
		{
			"bufferView":98,
			"componentType":5126,
			"count":272,
			"type":"VEC2"
		},
		{
			"bufferView":99,
			"componentType":5123,
			"count":414,
			"type":"SCALAR"
		},
		{
			"bufferView":100,
			"componentType":5126,
			"count":911,
			"max":[
				25.52471351623535,
				35.15530776977539,
				58.297813415527344
			],
			"min":[
				9.889829635620117,
				25.59939956665039,
				52.5010986328125
			],
			"type":"VEC3"
		},
		{
			"bufferView":101,
			"componentType":5126,
			"count":911,
			"type":"VEC3"
		},
		{
			"bufferView":102,
			"componentType":5126,
			"count":911,
			"type":"VEC2"
		},
		{
			"bufferView":103,
			"componentType":5123,
			"count":1392,
			"type":"SCALAR"
		},
		{
			"bufferView":104,
			"componentType":5126,
			"count":96,
			"max":[
				41.031707763671875,
				11.711518287658691,
				3.848113775253296
			],
			"min":[
				23.994300842285156,
				9.213399887084961,
				-7.73022985458374
			],
			"type":"VEC3"
		},
		{
			"bufferView":105,
			"componentType":5126,
			"count":96,
			"type":"VEC3"
		},
		{
			"bufferView":106,
			"componentType":5126,
			"count":96,
			"type":"VEC2"
		},
		{
			"bufferView":107,
			"componentType":5123,
			"count":252,
			"type":"SCALAR"
		},
		{
			"bufferView":108,
			"componentType":5126,
			"count":48,
			"max":[
				15.429696083068848,
				7.794748306274414,
				-12.266562461853027
			],
			"min":[
				14.211000442504883,
				6.073530197143555,
				-13.785799980163574
			],
			"type":"VEC3"
		},
		{
			"bufferView":109,
			"componentType":5126,
			"count":48,
			"type":"VEC3"
		},
		{
			"bufferView":110,
			"componentType":5126,
			"count":48,
			"type":"VEC2"
		},
		{
			"bufferView":111,
			"componentType":5126,
			"count":272,
			"max":[
				33.75862121582031,
				13.47618293762207,
				-0.28741684556007385
			],
			"min":[
				14.041999816894531,
				6.948840141296387,
				-14.166600227355957
			],
			"type":"VEC3"
		},
		{
			"bufferView":112,
			"componentType":5126,
			"count":272,
			"type":"VEC3"
		},
		{
			"bufferView":113,
			"componentType":5126,
			"count":272,
			"type":"VEC2"
		},
		{
			"bufferView":114,
			"componentType":5126,
			"count":911,
			"max":[
				25.52471351623535,
				35.15530776977539,
				58.297813415527344
			],
			"min":[
				9.889829635620117,
				25.59939956665039,
				52.5010986328125
			],
			"type":"VEC3"
		},
		{
			"bufferView":115,
			"componentType":5126,
			"count":911,
			"type":"VEC3"
		},
		{
			"bufferView":116,
			"componentType":5126,
			"count":911,
			"type":"VEC2"
		},
		{
			"bufferView":117,
			"componentType":5126,
			"count":96,
			"max":[
				41.031707763671875,
				11.711518287658691,
				3.848113775253296
			],
			"min":[
				23.994300842285156,
				9.213399887084961,
				-7.73022985458374
			],
			"type":"VEC3"
		},
		{
			"bufferView":118,
			"componentType":5126,
			"count":96,
			"type":"VEC3"
		},
		{
			"bufferView":119,
			"componentType":5126,
			"count":96,
			"type":"VEC2"
		}
	],
	"bufferViews":[
		{
			"buffer":0,
			"byteLength":48,
			"byteOffset":0,
			"target":34962
		},
		{
			"buffer":0,
			"byteLength":48,
			"byteOffset":48,
			"target":34962
		},
		{
			"buffer":0,
			"byteLength":32,
			"byteOffset":96,
			"target":34962
		},
		{
			"buffer":0,
			"byteLength":12,
			"byteOffset":128,
			"target":34963
		},
		{
			"buffer":0,
			"byteLength":4716,
			"byteOffset":140,
			"target":34962
		},
		{
			"buffer":0,
			"byteLength":4716,
			"byteOffset":4856,
			"target":34962
		},
		{
			"buffer":0,
			"byteLength":3144,
			"byteOffset":9572,
			"target":34962
		},
		{
			"buffer":0,
			"byteLength":1440,
			"byteOffset":12716,
			"target":34963
		},
		{
			"buffer":0,
			"byteLength":47976,
			"byteOffset":14156,
			"target":34962
		},
		{
			"buffer":0,
			"byteLength":47976,
			"byteOffset":62132,
			"target":34962
		},
		{
			"buffer":0,
			"byteLength":31984,
			"byteOffset":110108,
			"target":34962
		},
		{
			"buffer":0,
			"byteLength":34320,
			"byteOffset":142092,
			"target":34963
		},
		{
			"buffer":0,
			"byteLength":9156,
			"byteOffset":176412,
			"target":34962
		},
		{
			"buffer":0,
			"byteLength":9156,
			"byteOffset":185568,
			"target":34962
		},
		{
			"buffer":0,
			"byteLength":6104,
			"byteOffset":194724,
			"target":34962
		},
		{
			"buffer":0,
			"byteLength":6912,
			"byteOffset":200828,
			"target":34963
		},
		{
			"buffer":0,
			"byteLength":7008,
			"byteOffset":207740,
			"target":34962
		},
		{
			"buffer":0,
			"byteLength":7008,
			"byteOffset":214748,
			"target":34962
		},
		{
			"buffer":0,
			"byteLength":4672,
			"byteOffset":221756,
			"target":34962
		},
		{
			"buffer":0,
			"byteLength":2448,
			"byteOffset":226428,
			"target":34963
		},
		{
			"buffer":0,
			"byteLength":4668,
			"byteOffset":228876,
			"target":34962
		},
		{
			"buffer":0,
			"byteLength":4668,
			"byteOffset":233544,
			"target":34962
		},
		{
			"buffer":0,
			"byteLength":3112,
			"byteOffset":238212,
			"target":34962
		},
		{
			"buffer":0,
			"byteLength":1440,
			"byteOffset":241324,
			"target":34963
		},
		{
			"buffer":0,
			"byteLength":48108,
			"byteOffset":242764,
			"target":34962
		},
		{
			"buffer":0,
			"byteLength":48108,
			"byteOffset":290872,
			"target":34962
		},
		{
			"buffer":0,
			"byteLength":32072,
			"byteOffset":338980,
			"target":34962
		},
		{
			"buffer":0,
			"byteLength":34320,
			"byteOffset":371052,
			"target":34963
		},
		{
			"buffer":0,
			"byteLength":9156,
			"byteOffset":405372,
			"target":34962
		},
		{
			"buffer":0,
			"byteLength":9156,
			"byteOffset":414528,
			"target":34962
		},
		{
			"buffer":0,
			"byteLength":6104,
			"byteOffset":423684,
			"target":34962
		},
		{
			"buffer":0,
			"byteLength":6912,
			"byteOffset":429788,
			"target":34963
		},
		{
			"buffer":0,
			"byteLength":7104,
			"byteOffset":436700,
			"target":34962
		},
		{
			"buffer":0,
			"byteLength":7104,
			"byteOffset":443804,
			"target":34962
		},
		{
			"buffer":0,
			"byteLength":4736,
			"byteOffset":450908,
			"target":34962
		},
		{
			"buffer":0,
			"byteLength":2448,
			"byteOffset":455644,
			"target":34963
		},
		{
			"buffer":0,
			"byteLength":4716,
			"byteOffset":458092,
			"target":34962
		},
		{
			"buffer":0,
			"byteLength":4716,
			"byteOffset":462808,
			"target":34962
		},
		{
			"buffer":0,
			"byteLength":3144,
			"byteOffset":467524,
			"target":34962
		},
		{
			"buffer":0,
			"byteLength":47976,
			"byteOffset":470668,
			"target":34962
		},
		{
			"buffer":0,
			"byteLength":47976,
			"byteOffset":518644,
			"target":34962
		},
		{
			"buffer":0,
			"byteLength":31984,
			"byteOffset":566620,
			"target":34962
		},
		{
			"buffer":0,
			"byteLength":9156,
			"byteOffset":598604,
			"target":34962
		},
		{
			"buffer":0,
			"byteLength":9156,
			"byteOffset":607760,
			"target":34962
		},
		{
			"buffer":0,
			"byteLength":6104,
			"byteOffset":616916,
			"target":34962
		},
		{
			"buffer":0,
			"byteLength":7008,
			"byteOffset":623020,
			"target":34962
		},
		{
			"buffer":0,
			"byteLength":7008,
			"byteOffset":630028,
			"target":34962
		},
		{
			"buffer":0,
			"byteLength":4672,
			"byteOffset":637036,
			"target":34962
		},
		{
			"buffer":0,
			"byteLength":4668,
			"byteOffset":641708,
			"target":34962
		},
		{
			"buffer":0,
			"byteLength":4668,
			"byteOffset":646376,
			"target":34962
		},
		{
			"buffer":0,
			"byteLength":3112,
			"byteOffset":651044,
			"target":34962
		},
		{
			"buffer":0,
			"byteLength":48108,
			"byteOffset":654156,
			"target":34962
		},
		{
			"buffer":0,
			"byteLength":48108,
			"byteOffset":702264,
			"target":34962
		},
		{
			"buffer":0,
			"byteLength":32072,
			"byteOffset":750372,
			"target":34962
		},
		{
			"buffer":0,
			"byteLength":9156,
			"byteOffset":782444,
			"target":34962
		},
		{
			"buffer":0,
			"byteLength":9156,
			"byteOffset":791600,
			"target":34962
		},
		{
			"buffer":0,
			"byteLength":6104,
			"byteOffset":800756,
			"target":34962
		},
		{
			"buffer":0,
			"byteLength":7104,
			"byteOffset":806860,
			"target":34962
		},
		{
			"buffer":0,
			"byteLength":7104,
			"byteOffset":813964,
			"target":34962
		},
		{
			"buffer":0,
			"byteLength":4736,
			"byteOffset":821068,
			"target":34962
		},
		{
			"buffer":0,
			"byteLength":270528,
			"byteOffset":825804,
			"target":34962
		},
		{
			"buffer":0,
			"byteLength":270528,
			"byteOffset":1096332,
			"target":34962
		},
		{
			"buffer":0,
			"byteLength":180352,
			"byteOffset":1366860,
			"target":34962
		},
		{
			"buffer":0,
			"byteLength":112944,
			"byteOffset":1547212,
			"target":34963
		},
		{
			"buffer":0,
			"byteLength":12648,
			"byteOffset":1660156,
			"target":34962
		},
		{
			"buffer":0,
			"byteLength":12648,
			"byteOffset":1672804,
			"target":34962
		},
		{
			"buffer":0,
			"byteLength":8432,
			"byteOffset":1685452,
			"target":34962
		},
		{
			"buffer":0,
			"byteLength":9936,
			"byteOffset":1693884,
			"target":34963
		},
		{
			"buffer":0,
			"byteLength":269028,
			"byteOffset":1703820,
			"target":34962
		},
		{
			"buffer":0,
			"byteLength":269028,
			"byteOffset":1972848,
			"target":34962
		},
		{
			"buffer":0,
			"byteLength":179352,
			"byteOffset":2241876,
			"target":34962
		},
		{
			"buffer":0,
			"byteLength":233688,
			"byteOffset":2421228,
			"target":34963
		},
		{
			"buffer":0,
			"byteLength":18876,
			"byteOffset":2654916,
			"target":34962
		},
		{
			"buffer":0,
			"byteLength":18876,
			"byteOffset":2673792,
			"target":34962
		},
		{
			"buffer":0,
			"byteLength":12584,
			"byteOffset":2692668,
			"target":34962
		},
		{
			"buffer":0,
			"byteLength":14532,
			"byteOffset":2705252,
			"target":34963
		},
		{
			"buffer":0,
			"byteLength":20868,
			"byteOffset":2719784,
			"target":34962
		},
		{
			"buffer":0,
			"byteLength":20868,
			"byteOffset":2740652,
			"target":34962
		},
		{
			"buffer":0,
			"byteLength":13912,
			"byteOffset":2761520,
			"target":34962
		},
		{
			"buffer":0,
			"byteLength":15312,
			"byteOffset":2775432,
			"target":34963
		},
		{
			"buffer":0,
			"byteLength":1116,
			"byteOffset":2790744,
			"target":34962
		},
		{
			"buffer":0,
			"byteLength":1116,
			"byteOffset":2791860,
			"target":34962
		},
		{
			"buffer":0,
			"byteLength":744,
			"byteOffset":2792976,
			"target":34962
		},
		{
			"buffer":0,
			"byteLength":816,
			"byteOffset":2793720,
			"target":34963
		},
		{
			"buffer":0,
			"byteLength":996,
			"byteOffset":2794536,
			"target":34962
		},
		{
			"buffer":0,
			"byteLength":996,
			"byteOffset":2795532,
			"target":34962
		},
		{
			"buffer":0,
			"byteLength":664,
			"byteOffset":2796528,
			"target":34962
		},
		{
			"buffer":0,
			"byteLength":756,
			"byteOffset":2797192,
			"target":34963
		},
		{
			"buffer":0,
			"byteLength":996,
			"byteOffset":2797948,
			"target":34962
		},
		{
			"buffer":0,
			"byteLength":996,
			"byteOffset":2798944,
			"target":34962
		},
		{
			"buffer":0,
			"byteLength":664,
			"byteOffset":2799940,
			"target":34962
		},
		{
			"buffer":0,
			"byteLength":756,
			"byteOffset":2800604,
			"target":34963
		},
		{
			"buffer":0,
			"byteLength":576,
			"byteOffset":2801360,
			"target":34962
		},
		{
			"buffer":0,
			"byteLength":576,
			"byteOffset":2801936,
			"target":34962
		},
		{
			"buffer":0,
			"byteLength":384,
			"byteOffset":2802512,
			"target":34962
		},
		{
			"buffer":0,
			"byteLength":432,
			"byteOffset":2802896,
			"target":34963
		},
		{
			"buffer":0,
			"byteLength":3264,
			"byteOffset":2803328,
			"target":34962
		},
		{
			"buffer":0,
			"byteLength":3264,
			"byteOffset":2806592,
			"target":34962
		},
		{
			"buffer":0,
			"byteLength":2176,
			"byteOffset":2809856,
			"target":34962
		},
		{
			"buffer":0,
			"byteLength":828,
			"byteOffset":2812032,
			"target":34963
		},
		{
			"buffer":0,
			"byteLength":10932,
			"byteOffset":2812860,
			"target":34962
		},
		{
			"buffer":0,
			"byteLength":10932,
			"byteOffset":2823792,
			"target":34962
		},
		{
			"buffer":0,
			"byteLength":7288,
			"byteOffset":2834724,
			"target":34962
		},
		{
			"buffer":0,
			"byteLength":2784,
			"byteOffset":2842012,
			"target":34963
		},
		{
			"buffer":0,
			"byteLength":1152,
			"byteOffset":2844796,
			"target":34962
		},
		{
			"buffer":0,
			"byteLength":1152,
			"byteOffset":2845948,
			"target":34962
		},
		{
			"buffer":0,
			"byteLength":768,
			"byteOffset":2847100,
			"target":34962
		},
		{
			"buffer":0,
			"byteLength":504,
			"byteOffset":2847868,
			"target":34963
		},
		{
			"buffer":0,
			"byteLength":576,
			"byteOffset":2848372,
			"target":34962
		},
		{
			"buffer":0,
			"byteLength":576,
			"byteOffset":2848948,
			"target":34962
		},
		{
			"buffer":0,
			"byteLength":384,
			"byteOffset":2849524,
			"target":34962
		},
		{
			"buffer":0,
			"byteLength":3264,
			"byteOffset":2849908,
			"target":34962
		},
		{
			"buffer":0,
			"byteLength":3264,
			"byteOffset":2853172,
			"target":34962
		},
		{
			"buffer":0,
			"byteLength":2176,
			"byteOffset":2856436,
			"target":34962
		},
		{
			"buffer":0,
			"byteLength":10932,
			"byteOffset":2858612,
			"target":34962
		},
		{
			"buffer":0,
			"byteLength":10932,
			"byteOffset":2869544,
			"target":34962
		},
		{
			"buffer":0,
			"byteLength":7288,
			"byteOffset":2880476,
			"target":34962
		},
		{
			"buffer":0,
			"byteLength":1152,
			"byteOffset":2887764,
			"target":34962
		},
		{
			"buffer":0,
			"byteLength":1152,
			"byteOffset":2888916,
			"target":34962
		},
		{
			"buffer":0,
			"byteLength":768,
			"byteOffset":2890068,
			"target":34962
		}
	],
	"samplers":[
		{
			"magFilter":9729,
			"minFilter":9987
		}
	],
	"buffers":[
		{
			"byteLength":2890836,
			"uri":"Subaru.bin"
		}
	]
}
