{
	"asset":{
		"generator":"Khronos glTF Blender I/O v4.5.49",
		"version":"2.0"
	},
	"extensionsUsed":[
		"KHR_materials_specular"
	],
	"scene":0,
	"scenes":[
		{
			"name":"Scene",
			"nodes":[
				95
			]
		}
	],
	"nodes":[
		{
			"mesh":0,
			"name":"963_CALIPER_RL_963_WHEEL_0"
		},
		{
			"children":[
				0
			],
			"name":"_gltfNode_65",
			"rotation":[
				0,
				0.7071068286895752,
				0,
				0.7071067094802856
			],
			"translation":[
				0,
				0,
				1.0175801435252652e-05
			]
		},
		{
			"children":[
				1
			],
			"name":"963_CALIPER_RL.001",
			"scale":[
				1.0664399862289429,
				1.0664399862289429,
				1.0664399862289429
			],
			"translation":[
				7.62939453125e-06,
				-1.4594040294468869e-05,
				0
			]
		},
		{
			"children":[
				2
			],
			"name":"963_CALIPER_RL",
			"scale":[
				0.9376999139785767,
				0.9376999139785767,
				0.9376999139785767
			],
			"translation":[
				40.70029830932617,
				19.5669002532959,
				-67.5728988647461
			]
		},
		{
			"mesh":1,
			"name":"963_CALIPER_RR_963_WHEEL_0",
			"translation":[
				-3.757529157155659e-06,
				0,
				-3.2204040962824365e-06
			]
		},
		{
			"children":[
				4
			],
			"name":"_gltfNode_34",
			"rotation":[
				0,
				0.7071068286895752,
				0,
				0.7071067094802856
			],
			"translation":[
				2.113878963427851e-06,
				0,
				0
			]
		},
		{
			"children":[
				5
			],
			"name":"963_CALIPER_RR.001",
			"scale":[
				1.0664399862289429,
				1.0664399862289429,
				1.0664399862289429
			],
			"translation":[
				-3.814697265625e-06,
				-5.0572971304063685e-06,
				0
			]
		},
		{
			"children":[
				6
			],
			"name":"963_CALIPER_RR",
			"scale":[
				0.9376999139785767,
				0.9376999139785767,
				0.9376999139785767
			],
			"translation":[
				-41.25979995727539,
				19.5669002532959,
				-67.5728988647461
			]
		},
		{
			"mesh":2,
			"name":"963_CARBON_963_CARBON_0"
		},
		{
			"children":[
				8
			],
			"name":"963_CARBON",
			"rotation":[
				-0.70710688829422,
				0,
				0,
				0.7071066498756409
			],
			"translation":[
				0,
				0,
				7.472690105438232
			]
		},
		{
			"mesh":3,
			"name":"963_DETAILS_963_DETAILS_0"
		},
		{
			"children":[
				10
			],
			"name":"_gltfNode_1",
			"rotation":[
				-0.70710688829422,
				0,
				0,
				0.7071066498756409
			]
		},
		{
			"children":[
				11
			],
			"name":"963_DETAILS",
			"translation":[
				0,
				0,
				7.472690105438232
			]
		},
		{
			"mesh":4,
			"name":"963_PAINT_963_PAINT_0"
		},
		{
			"children":[
				13
			],
			"name":"_gltfNode_88",
			"translation":[
				0,
				-7.472690105438232,
				0
			]
		},
		{
			"children":[
				14
			],
			"name":"963_PAINT",
			"rotation":[
				-0.70710688829422,
				0,
				0,
				0.7071066498756409
			]
		},
		{
			"mesh":5,
			"name":"963_brakedisk_fl_963_WHEEL_0",
			"translation":[
				-3.6466603887674864e-06,
				0,
				0
			]
		},
		{
			"children":[
				16
			],
			"name":"_gltfNode_30",
			"rotation":[
				0,
				0.7071068286895752,
				0,
				0.7071067094802856
			],
			"translation":[
				0,
				-3.611443389672786e-06,
				0
			]
		},
		{
			"children":[
				17
			],
			"name":"963_brakedisk_fl",
			"scale":[
				1.0664399862289429,
				1.0664399862289429,
				1.0664399862289429
			],
			"translation":[
				-3.814697265625e-06,
				9.045134902407881e-06,
				4.229402293276507e-06
			]
		},
		{
			"mesh":6,
			"name":"963_RIM_FL_963_WHEEL_0",
			"translation":[
				-2.3562527076137485e-06,
				0,
				0
			]
		},
		{
			"children":[
				19
			],
			"name":"_gltfNode_27",
			"rotation":[
				0,
				0.7071068286895752,
				0,
				0.7071067094802856
			]
		},
		{
			"children":[
				20
			],
			"name":"963_RIM_FL",
			"scale":[
				1.0664399862289429,
				1.0664399862289429,
				1.0664399862289429
			],
			"translation":[
				-3.814697265625e-06,
				9.045134902407881e-06,
				4.229402293276507e-06
			]
		},
		{
			"mesh":7,
			"name":"963_TYRE_FL_963_WHEEL_0",
			"translation":[
				-3.130625373160001e-06,
				0,
				0
			]
		},
		{
			"children":[
				22
			],
			"name":"_gltfNode_24",
			"rotation":[
				0,
				0.7071068286895752,
				0,
				0.7071067094802856
			],
			"scale":[
				1.2467701435089111,
				1.2467701435089111,
				1.2467701435089111
			],
			"translation":[
				-2.3216905447043246e-06,
				0,
				-2.901694415413658e-06
			]
		},
		{
			"children":[
				23
			],
			"name":"963_TYRE_FL",
			"translation":[
				-3.814697265625e-06,
				0,
				4.229403202771209e-06
			]
		},
		{
			"children":[
				18,
				21,
				24
			],
			"name":"BONE_WHEEL_FL",
			"scale":[
				0.9376999139785767,
				0.9376999139785767,
				0.9376999139785767
			],
			"translation":[
				41.265804290771484,
				19.56879997253418,
				63.037498474121094
			]
		},
		{
			"mesh":8,
			"name":"963_brakedisk_FR_963_WHEEL_0",
			"translation":[
				-3.1235044843924697e-06,
				0,
				0
			]
		},
		{
			"children":[
				26
			],
			"name":"_gltfNode_81",
			"rotation":[
				0,
				0.7071068286895752,
				0,
				0.7071067094802856
			],
			"translation":[
				2.1129667402419727e-06,
				0,
				0
			]
		},
		{
			"children":[
				27
			],
			"name":"963_brakedisk_FR",
			"scale":[
				1.0664399862289429,
				1.0664399862289429,
				1.0664399862289429
			],
			"translation":[
				-1.1444091796875e-05,
				0,
				4.229403202771209e-06
			]
		},
		{
			"mesh":9,
			"name":"963_RIM_FR_963_WHEEL_0",
			"translation":[
				-6.115827090980019e-06,
				2.35569677897729e-06,
				0
			]
		},
		{
			"children":[
				29
			],
			"name":"_gltfNode_75",
			"rotation":[
				0,
				0.7071068286895752,
				0,
				0.7071067094802856
			],
			"translation":[
				3.814697265625e-06,
				0,
				-3.5993452911498025e-06
			]
		},
		{
			"children":[
				30
			],
			"name":"963_RIM_FR",
			"scale":[
				1.0664399862289429,
				1.0664399862289429,
				1.0664399862289429
			],
			"translation":[
				-1.1444091796875e-05,
				0,
				4.229403202771209e-06
			]
		},
		{
			"mesh":10,
			"name":"963_TYRE_FR_963_WHEEL_0"
		},
		{
			"children":[
				32
			],
			"name":"_gltfNode_78",
			"rotation":[
				0,
				0.7071068286895752,
				0,
				0.7071067094802856
			],
			"scale":[
				1.2467701435089111,
				1.2467701435089111,
				1.2467701435089111
			],
			"translation":[
				-6.136387582955649e-06,
				0,
				-2.9016493954259204e-06
			]
		},
		{
			"children":[
				33
			],
			"name":"963_TYRE_FR",
			"translation":[
				-3.814697265625e-06,
				0,
				4.229403202771209e-06
			]
		},
		{
			"children":[
				28,
				31,
				34
			],
			"name":"BONE_WHEEL_FR",
			"scale":[
				0.9376999139785767,
				0.9376999139785767,
				0.9376999139785767
			],
			"translation":[
				-41.25979995727539,
				19.56879997253418,
				63.037498474121094
			]
		},
		{
			"mesh":11,
			"name":"963_brakedisk_RL_963_WHEEL_0",
			"translation":[
				1.1083093340857886e-05,
				4.102638285985449e-06,
				0
			]
		},
		{
			"children":[
				36
			],
			"name":"_gltfNode_51",
			"rotation":[
				0,
				0.7071068286895752,
				0,
				0.7071067094802856
			]
		},
		{
			"children":[
				37
			],
			"name":"963_brakedisk_RL",
			"scale":[
				1.0664399862289429,
				1.0664399862289429,
				1.0664399862289429
			],
			"translation":[
				7.62939453125e-06,
				-1.5555186109850183e-05,
				1.1859128790092655e-05
			]
		},
		{
			"mesh":12,
			"name":"963_RIM_RL_963_WHEEL_0"
		},
		{
			"children":[
				39
			],
			"name":"_gltfNode_48",
			"rotation":[
				0,
				0.7071068286895752,
				0,
				0.7071067094802856
			]
		},
		{
			"children":[
				40
			],
			"name":"963_RIM_RL",
			"scale":[
				1.0664399862289429,
				1.0664399862289429,
				1.0664399862289429
			],
			"translation":[
				7.62939453125e-06,
				-1.5555186109850183e-05,
				1.1859128790092655e-05
			]
		},
		{
			"mesh":13,
			"name":"963_TYRE_RL_963_WHEEL_0",
			"translation":[
				-3.498497335385764e-06,
				0,
				0
			]
		},
		{
			"children":[
				42
			],
			"name":"_gltfNode_45",
			"rotation":[
				0,
				0.7071068286895752,
				0,
				0.7071067094802856
			],
			"scale":[
				1.2812601327896118,
				1.2812600135803223,
				1.2812601327896118
			],
			"translation":[
				-2.3207137473946204e-06,
				2.213935658801347e-06,
				-2.8991912586207036e-06
			]
		},
		{
			"children":[
				43
			],
			"name":"963_TYRE_RL",
			"translation":[
				7.62939453125e-06,
				-6.018443855282385e-06,
				4.229733349347953e-06
			]
		},
		{
			"children":[
				38,
				41,
				44
			],
			"name":"BONE_WHEEL_RL",
			"scale":[
				0.9376999139785767,
				0.9376999139785767,
				0.9376999139785767
			],
			"translation":[
				40.70029830932617,
				19.5669002532959,
				-67.5728988647461
			]
		},
		{
			"mesh":14,
			"name":"963_brakedisk_RR_963_WHEEL_0",
			"translation":[
				2.171155301766703e-06,
				0,
				-3.220389999114559e-06
			]
		},
		{
			"children":[
				46
			],
			"name":"_gltfNode_61",
			"rotation":[
				0,
				0.7071068286895752,
				0,
				0.7071067094802856
			],
			"translation":[
				2.1138828287803335e-06,
				0,
				3.372457285877317e-06
			]
		},
		{
			"children":[
				47
			],
			"name":"963_brakedisk_RR",
			"scale":[
				1.0664399862289429,
				1.0664399862289429,
				1.0664399862289429
			],
			"translation":[
				-3.814697265625e-06,
				-6.01844112679828e-06,
				1.948852150235325e-05
			]
		},
		{
			"mesh":15,
			"name":"963_RIM_R_963_WHEEL_0",
			"translation":[
				-3.125626790279057e-06,
				0,
				-3.2203913633566117e-06
			]
		},
		{
			"children":[
				49
			],
			"name":"_gltfNode_58",
			"rotation":[
				0,
				0.7071068286895752,
				0,
				0.7071067094802856
			],
			"translation":[
				2.1138828287803335e-06,
				0,
				8.669238923175726e-06
			]
		},
		{
			"children":[
				50
			],
			"name":"963_RIM_R",
			"scale":[
				1.0664399862289429,
				1.0664399862289429,
				1.0664399862289429
			],
			"translation":[
				-3.814697265625e-06,
				-6.01844112679828e-06,
				1.948852150235325e-05
			]
		},
		{
			"mesh":16,
			"name":"963_TYRE_RR_963_WHEEL_0",
			"translation":[
				-5.776883881480899e-06,
				0,
				0
			]
		},
		{
			"children":[
				52
			],
			"name":"_gltfNode_55",
			"rotation":[
				0,
				0.7071068286895752,
				0,
				0.7071067094802856
			],
			"scale":[
				1.2812601327896118,
				1.2812600135803223,
				1.2812601327896118
			],
			"translation":[
				-6.135411240393296e-06,
				4.404793799039908e-06,
				-2.8991464660066413e-06
			]
		},
		{
			"children":[
				53
			],
			"name":"963_TYRE_RR",
			"translation":[
				-3.814697265625e-06,
				-6.018443855282385e-06,
				4.229733349347953e-06
			]
		},
		{
			"children":[
				48,
				51,
				54
			],
			"name":"BONE_WHEEL_RR",
			"scale":[
				0.9376999139785767,
				0.9376999139785767,
				0.9376999139785767
			],
			"translation":[
				-41.25979995727539,
				19.5669002532959,
				-67.5728988647461
			]
		},
		{
			"mesh":17,
			"name":"front_LEDS_963_front_led_on_0",
			"translation":[
				0,
				0,
				-1.104506736737676e-05
			]
		},
		{
			"children":[
				56
			],
			"name":"_gltfNode_11",
			"translation":[
				27.06599998474121,
				20.965301513671875,
				92.17150115966797
			]
		},
		{
			"children":[
				57
			],
			"name":"front_LEDS",
			"translation":[
				0,
				0,
				7.472690105438232
			]
		},
		{
			"mesh":18,
			"name":"glass_963_GLASS_0"
		},
		{
			"children":[
				59
			],
			"name":"glass",
			"rotation":[
				-0.70710688829422,
				0,
				0,
				0.7071066498756409
			],
			"translation":[
				0,
				0,
				7.472690105438232
			]
		},
		{
			"mesh":19,
			"name":"963_CALIPER_FL_963_WHEEL_0",
			"translation":[
				2.9403499866020866e-06,
				0,
				0
			]
		},
		{
			"children":[
				61
			],
			"name":"_gltfNode_41",
			"rotation":[
				0,
				0.7071068286895752,
				0,
				0.7071067094802856
			],
			"translation":[
				-3.814697265625e-06,
				0,
				-4.670076577895088e-06
			]
		},
		{
			"children":[
				62
			],
			"name":"963_CALIPER_FL",
			"scale":[
				1.0664399862289429,
				1.0664399862289429,
				1.0664399862289429
			],
			"translation":[
				3.814697265625e-06,
				0,
				6.717184078297578e-06
			]
		},
		{
			"children":[
				63
			],
			"name":"GTV_CALIPER_FL",
			"scale":[
				0.9376999139785767,
				0.9376999139785767,
				0.9376999139785767
			],
			"translation":[
				41.265804290771484,
				19.56879997253418,
				63.037498474121094
			]
		},
		{
			"mesh":20,
			"name":"963_CALIPER_FR_963_WHEEL_0",
			"translation":[
				-2.520798716432182e-06,
				0,
				0
			]
		},
		{
			"children":[
				65
			],
			"name":"_gltfNode_69",
			"rotation":[
				0,
				0.7071068286895752,
				0,
				0.7071067094802856
			],
			"translation":[
				3.814697265625e-06,
				0,
				-7.194370482466184e-06
			]
		},
		{
			"children":[
				66
			],
			"name":"963_CALIPER_FR",
			"scale":[
				1.0664399862289429,
				1.0664399862289429,
				1.0664399862289429
			],
			"translation":[
				-2.288818359375e-05,
				0,
				0
			]
		},
		{
			"children":[
				67
			],
			"name":"GTV_CALIPER_FR",
			"scale":[
				0.9376999139785767,
				0.9376999139785767,
				0.9376999139785767
			],
			"translation":[
				-41.25979995727539,
				19.56879997253418,
				63.037498474121094
			]
		},
		{
			"mesh":21,
			"name":"lamp_led_glass_963_lamp_led_glass_0",
			"translation":[
				0,
				5.9010817494709045e-06,
				0
			]
		},
		{
			"children":[
				69
			],
			"name":"_gltfNode_14",
			"translation":[
				27.113801956176758,
				-92.14009857177734,
				19.066299438476562
			]
		},
		{
			"children":[
				70
			],
			"name":"lamp_led_glass",
			"rotation":[
				-0.70710688829422,
				0,
				0,
				0.7071066498756409
			],
			"translation":[
				0,
				0,
				7.472690105438232
			]
		},
		{
			"mesh":22,
			"name":"mirror_963_mirror_0"
		},
		{
			"children":[
				72
			],
			"name":"mirror",
			"rotation":[
				-0.70710688829422,
				0,
				0,
				0.7071066498756409
			],
			"translation":[
				0,
				0,
				7.472690105438232
			]
		},
		{
			"mesh":23,
			"name":"rear_bottom_LED_963_LED_RED_ON_0"
		},
		{
			"children":[
				74
			],
			"name":"_gltfNode_4",
			"translation":[
				0,
				-107.22599792480469,
				-21.109201431274414
			]
		},
		{
			"children":[
				75
			],
			"name":"rear_bottom_LED",
			"rotation":[
				-0.6293207406997681,
				0,
				0,
				0.7771457433700562
			],
			"translation":[
				0,
				22.433002471923828,
				-94.36249542236328
			]
		},
		{
			"mesh":24,
			"name":"rear_led_top_963_LED_RED_ON_0",
			"translation":[
				3.783452029892942e-06,
				0,
				0
			]
		},
		{
			"children":[
				77
			],
			"name":"_gltfNode_17",
			"translation":[
				-45.85750198364258,
				55.47669982910156,
				115.17599487304688
			]
		},
		{
			"children":[
				78
			],
			"name":"rear_led_top",
			"rotation":[
				0,
				1,
				0,
				7.549799363459897e-08
			],
			"translation":[
				0,
				0,
				7.472690105438232
			]
		},
		{
			"mesh":25,
			"name":"red_glass_963_GLASS_0"
		},
		{
			"children":[
				80
			],
			"name":"red_glass",
			"rotation":[
				-0.70710688829422,
				0,
				0,
				0.7071066498756409
			],
			"translation":[
				0,
				0,
				7.472690105438232
			]
		},
		{
			"mesh":26,
			"name":"wiper_arm_963_DETAILS_0",
			"translation":[
				3.814696810877649e-06,
				3.8146990846144035e-06,
				0
			]
		},
		{
			"children":[
				82
			],
			"name":"_gltfNode_38",
			"translation":[
				0.16893386840820312,
				6.248230934143066,
				0
			]
		},
		{
			"children":[
				83
			],
			"name":"wiper_arm",
			"rotation":[
				-0.29323238134384155,
				0.6434397101402283,
				-0.29323267936706543,
				0.643439769744873
			],
			"translation":[
				0,
				43.06039810180664,
				57.660194396972656
			]
		},
		{
			"mesh":27,
			"name":"wiper_based_963_DETAILS_0"
		},
		{
			"children":[
				85
			],
			"name":"wiper_based",
			"rotation":[
				-0.3502075970172882,
				0,
				0,
				0.9366722106933594
			],
			"translation":[
				0,
				39.880699157714844,
				56.30400466918945
			]
		},
		{
			"mesh":28,
			"name":"wiper_brush_963_DETAILS_0"
		},
		{
			"children":[
				87
			],
			"name":"_gltfNode_85",
			"translation":[
				-1.34796142578125,
				-5.790319442749023,
				2.2358999558491632e-06
			]
		},
		{
			"children":[
				88
			],
			"name":"wiper_brush",
			"rotation":[
				-0.2932325303554535,
				0.643439769744873,
				-0.2932325303554535,
				0.6434397101402283
			],
			"translation":[
				0,
				49.813594818115234,
				47.57939529418945
			]
		},
		{
			"children":[
				3,
				7,
				9,
				12,
				15,
				25,
				35,
				45,
				55,
				58,
				60,
				64,
				68,
				71,
				73,
				76,
				79,
				81,
				84,
				86,
				89
			],
			"name":"963_ROOT"
		},
		{
			"mesh":29,
			"name":"963_shadow__0",
			"scale":[
				0.8145447969436646,
				0.7965610027313232,
				1
			],
			"translation":[
				-0.618619441986084,
				7.171279430389404,
				0
			]
		},
		{
			"children":[
				91
			],
			"name":"_gltfNode_92",
			"rotation":[
				-0.70710688829422,
				0,
				0,
				0.7071066498756409
			]
		},
		{
			"children":[
				92
			],
			"name":"963_shadow"
		},
		{
			"children":[
				90,
				93
			],
			"name":"RootNode"
		},
		{
			"children":[
				94
			],
			"name":"0e3a633132ff47699a01f41274bf9d1e.fbx",
			"scale":[
				0.02539999969303608,
				0.02539999969303608,
				0.02539999969303608
			]
		}
	],
	"materials":[
		{
			"doubleSided":true,
			"name":"963_WHEEL",
			"normalTexture":{
				"index":0,
				"scale":2
			},
			"pbrMetallicRoughness":{
				"baseColorTexture":{
					"index":1
				},
				"metallicFactor":0,
				"metallicRoughnessTexture":{
					"index":2
				}
			}
		},
		{
			"doubleSided":true,
			"name":"963_CARBON",
			"pbrMetallicRoughness":{
				"baseColorTexture":{
					"index":3
				}
			}
		},
		{
			"alphaMode":"BLEND",
			"doubleSided":true,
			"name":"963_DETAILS",
			"pbrMetallicRoughness":{
				"baseColorTexture":{
					"index":4
				},
				"metallicFactor":0,
				"metallicRoughnessTexture":{
					"index":5
				}
			}
		},
		{
			"doubleSided":true,
			"name":"963_PAINT",
			"occlusionTexture":{
				"index":6
			},
			"pbrMetallicRoughness":{
				"baseColorTexture":{
					"index":7
				},
				"metallicFactor":0,
				"metallicRoughnessTexture":{
					"index":6
				},
				"roughnessFactor":0
			}
		},
		{
			"doubleSided":true,
			"name":"963_WHEEL.001",
			"normalTexture":{
				"index":8,
				"scale":2
			},
			"pbrMetallicRoughness":{
				"baseColorTexture":{
					"index":9
				},
				"metallicFactor":0,
				"metallicRoughnessTexture":{
					"index":10
				}
			}
		},
		{
			"doubleSided":true,
			"name":"963_front_led_on"
		},
		{
			"alphaMode":"BLEND",
			"doubleSided":true,
			"name":"MCRC_GLASS",
			"pbrMetallicRoughness":{
				"baseColorTexture":{
					"index":11
				},
				"metallicFactor":0,
				"metallicRoughnessTexture":{
					"index":12
				}
			}
		},
		{
			"alphaMode":"BLEND",
			"doubleSided":true,
			"name":"963_lamp_led_glass",
			"pbrMetallicRoughness":{
				"baseColorTexture":{
					"index":13
				}
			}
		},
		{
			"doubleSided":true,
			"name":"963_mirror"
		},
		{
			"alphaMode":"BLEND",
			"doubleSided":true,
			"name":"963_LED_RED_ON",
			"pbrMetallicRoughness":{
				"baseColorTexture":{
					"index":14
				}
			}
		},
		{
			"doubleSided":true,
			"name":"963_GLASS"
		},
		{
			"alphaMode":"BLEND",
			"doubleSided":true,
			"extensions":{
				"KHR_materials_specular":{
					"specularFactor":0
				}
			},
			"name":"488_SHADOW",
			"pbrMetallicRoughness":{
				"baseColorFactor":[
					0,
					0,
					0,
					1
				],
				"baseColorTexture":{
					"index":15
				},
				"metallicFactor":0
			}
		}
	],
	"meshes":[
		{
			"name":"963_CALIPER_RL_963_WHEEL_0",
			"primitives":[
				{
					"attributes":{
						"POSITION":0,
						"NORMAL":1,
						"TEXCOORD_0":2
					},
					"indices":3,
					"material":0
				}
			]
		},
		{
			"name":"963_CALIPER_RR_963_WHEEL_0",
			"primitives":[
				{
					"attributes":{
						"POSITION":4,
						"NORMAL":5,
						"TEXCOORD_0":6
					},
					"indices":7,
					"material":0
				}
			]
		},
		{
			"name":"963_CARBON_963_CARBON_0",
			"primitives":[
				{
					"attributes":{
						"POSITION":8,
						"NORMAL":9,
						"TEXCOORD_0":10
					},
					"indices":11,
					"material":1
				}
			]
		},
		{
			"name":"963_DETAILS_963_DETAILS_0",
			"primitives":[
				{
					"attributes":{
						"POSITION":12,
						"NORMAL":13,
						"TEXCOORD_0":14
					},
					"indices":15,
					"material":2
				}
			]
		},
		{
			"name":"963_PAINT_963_PAINT_0",
			"primitives":[
				{
					"attributes":{
						"POSITION":16,
						"NORMAL":17,
						"TEXCOORD_0":18
					},
					"indices":19,
					"material":3
				}
			]
		},
		{
			"name":"963_brakedisk_fl_963_WHEEL_0",
			"primitives":[
				{
					"attributes":{
						"POSITION":20,
						"NORMAL":21,
						"TEXCOORD_0":22
					},
					"indices":23,
					"material":0
				}
			]
		},
		{
			"name":"963_RIM_FL_963_WHEEL_0",
			"primitives":[
				{
					"attributes":{
						"POSITION":24,
						"NORMAL":25,
						"TEXCOORD_0":26
					},
					"indices":27,
					"material":0
				}
			]
		},
		{
			"name":"963_TYRE_FL_963_WHEEL_0",
			"primitives":[
				{
					"attributes":{
						"POSITION":28,
						"NORMAL":29,
						"TEXCOORD_0":30
					},
					"indices":31,
					"material":4
				}
			]
		},
		{
			"name":"963_brakedisk_FR_963_WHEEL_0",
			"primitives":[
				{
					"attributes":{
						"POSITION":32,
						"NORMAL":33,
						"TEXCOORD_0":34
					},
					"indices":35,
					"material":0
				}
			]
		},
		{
			"name":"963_RIM_FR_963_WHEEL_0",
			"primitives":[
				{
					"attributes":{
						"POSITION":36,
						"NORMAL":37,
						"TEXCOORD_0":38
					},
					"indices":39,
					"material":0
				}
			]
		},
		{
			"name":"963_TYRE_FR_963_WHEEL_0",
			"primitives":[
				{
					"attributes":{
						"POSITION":40,
						"NORMAL":41,
						"TEXCOORD_0":42
					},
					"indices":43,
					"material":4
				}
			]
		},
		{
			"name":"963_brakedisk_RL_963_WHEEL_0",
			"primitives":[
				{
					"attributes":{
						"POSITION":44,
						"NORMAL":45,
						"TEXCOORD_0":46
					},
					"indices":23,
					"material":0
				}
			]
		},
		{
			"name":"963_RIM_RL_963_WHEEL_0",
			"primitives":[
				{
					"attributes":{
						"POSITION":47,
						"NORMAL":48,
						"TEXCOORD_0":49
					},
					"indices":50,
					"material":0
				}
			]
		},
		{
			"name":"963_TYRE_RL_963_WHEEL_0",
			"primitives":[
				{
					"attributes":{
						"POSITION":51,
						"NORMAL":52,
						"TEXCOORD_0":53
					},
					"indices":31,
					"material":4
				}
			]
		},
		{
			"name":"963_brakedisk_RR_963_WHEEL_0",
			"primitives":[
				{
					"attributes":{
						"POSITION":54,
						"NORMAL":55,
						"TEXCOORD_0":56
					},
					"indices":35,
					"material":0
				}
			]
		},
		{
			"name":"963_RIM_R_963_WHEEL_0",
			"primitives":[
				{
					"attributes":{
						"POSITION":57,
						"NORMAL":58,
						"TEXCOORD_0":59
					},
					"indices":39,
					"material":0
				}
			]
		},
		{
			"name":"963_TYRE_RR_963_WHEEL_0",
			"primitives":[
				{
					"attributes":{
						"POSITION":60,
						"NORMAL":61,
						"TEXCOORD_0":62
					},
					"indices":43,
					"material":4
				}
			]
		},
		{
			"name":"front_LEDS_963_front_led_on_0",
			"primitives":[
				{
					"attributes":{
						"POSITION":63,
						"NORMAL":64,
						"TEXCOORD_0":65
					},
					"indices":66,
					"material":5
				}
			]
		},
		{
			"name":"glass_963_GLASS_0",
			"primitives":[
				{
					"attributes":{
						"POSITION":67,
						"NORMAL":68,
						"TEXCOORD_0":69
					},
					"indices":70,
					"material":6
				}
			]
		},
		{
			"name":"963_CALIPER_FL_963_WHEEL_0",
			"primitives":[
				{
					"attributes":{
						"POSITION":71,
						"NORMAL":72,
						"TEXCOORD_0":73
					},
					"indices":3,
					"material":0
				}
			]
		},
		{
			"name":"963_CALIPER_FR_963_WHEEL_0",
			"primitives":[
				{
					"attributes":{
						"POSITION":74,
						"NORMAL":75,
						"TEXCOORD_0":76
					},
					"indices":7,
					"material":0
				}
			]
		},
		{
			"name":"lamp_led_glass_963_lamp_led_glass_0",
			"primitives":[
				{
					"attributes":{
						"POSITION":77,
						"NORMAL":78,
						"TEXCOORD_0":79
					},
					"indices":80,
					"material":7
				}
			]
		},
		{
			"name":"mirror_963_mirror_0",
			"primitives":[
				{
					"attributes":{
						"POSITION":81,
						"NORMAL":82,
						"TEXCOORD_0":83
					},
					"indices":84,
					"material":8
				}
			]
		},
		{
			"name":"rear_bottom_LED_963_LED_RED_ON_0",
			"primitives":[
				{
					"attributes":{
						"POSITION":85,
						"NORMAL":86,
						"TEXCOORD_0":87
					},
					"indices":88,
					"material":9
				}
			]
		},
		{
			"name":"rear_led_top_963_LED_RED_ON_0",
			"primitives":[
				{
					"attributes":{
						"POSITION":89,
						"NORMAL":90,
						"TEXCOORD_0":91
					},
					"indices":92,
					"material":9
				}
			]
		},
		{
			"name":"red_glass_963_GLASS_0",
			"primitives":[
				{
					"attributes":{
						"POSITION":93,
						"NORMAL":94,
						"TEXCOORD_0":95
					},
					"indices":96,
					"material":10
				}
			]
		},
		{
			"name":"wiper_arm_963_DETAILS_0",
			"primitives":[
				{
					"attributes":{
						"POSITION":97,
						"NORMAL":98,
						"TEXCOORD_0":99
					},
					"indices":100,
					"material":2
				}
			]
		},
		{
			"name":"wiper_based_963_DETAILS_0",
			"primitives":[
				{
					"attributes":{
						"POSITION":101,
						"NORMAL":102,
						"TEXCOORD_0":103
					},
					"indices":104,
					"material":2
				}
			]
		},
		{
			"name":"wiper_brush_963_DETAILS_0",
			"primitives":[
				{
					"attributes":{
						"POSITION":105,
						"NORMAL":106,
						"TEXCOORD_0":107
					},
					"indices":108,
					"material":2
				}
			]
		},
		{
			"name":"963_shadow__0",
			"primitives":[
				{
					"attributes":{
						"POSITION":109,
						"NORMAL":110,
						"TEXCOORD_0":111
					},
					"indices":112,
					"material":11
				}
			]
		}
	],
	"textures":[
		{
			"sampler":0,
			"source":0
		},
		{
			"sampler":0,
			"source":1
		},
		{
			"sampler":0,
			"source":2
		},
		{
			"sampler":0,
			"source":3
		},
		{
			"sampler":0,
			"source":4
		},
		{
			"sampler":0,
			"source":5
		},
		{
			"sampler":0,
			"source":6
		},
		{
			"sampler":0,
			"source":6
		},
		{
			"sampler":0,
			"source":0
		},
		{
			"sampler":0,
			"source":1
		},
		{
			"sampler":0,
			"source":2
		},
		{
			"sampler":0,
			"source":7
		},
		{
			"sampler":0,
			"source":8
		},
		{
			"sampler":0,
			"source":4
		},
		{
			"sampler":0,
			"source":4
		},
		{
			"sampler":0,
			"source":9
		}
	],
	"images":[
		{
			"mimeType":"image/png",
			"name":"0a88b6f837cd45b894554895c8560a37_N_963_WHEEL_NORMAL",
			"uri":"0a88b6f837cd45b894554895c8560a37_N_963_WHEEL_NORMAL.png"
		},
		{
			"mimeType":"image/png",
			"name":"7ba4546a4f6b4f0895bea78dfcd0aefc_RGB_963_WHEEL",
			"uri":"7ba4546a4f6b4f0895bea78dfcd0aefc_RGB_963_WHEEL.png"
		},
		{
			"mimeType":"image/png",
			"name":"1a4886c78b4e4998849f881b247e195f_R_963_WHEEL_SMOOTH",
			"uri":"1a4886c78b4e4998849f881b247e195f_R_963_WHEEL_SMOOTH.png"
		},
		{
			"mimeType":"image/png",
			"name":"66f7ed2ca1664c4d8fa7d2dfe1cc2d88_RGB_963_CARBON",
			"uri":"66f7ed2ca1664c4d8fa7d2dfe1cc2d88_RGB_963_CARBON.png"
		},
		{
			"mimeType":"image/png",
			"name":"1f7c0d10200d40a9813fcbdf5f81ece7_A_963_DETAILS",
			"uri":"1f7c0d10200d40a9813fcbdf5f81ece7_A_963_DETAILS.png"
		},
		{
			"mimeType":"image/png",
			"name":"8edf057df4d140c09c69f329c0ff1099_R_963_DETAILS_SMOOTH",
			"uri":"8edf057df4d140c09c69f329c0ff1099_R_963_DETAILS_SMOOTH.png"
		},
		{
			"mimeType":"image/png",
			"name":"1ea3b5821e7844ecbce4a8fbc79d03da_RGB_963_PAINT",
			"uri":"1ea3b5821e7844ecbce4a8fbc79d03da_RGB_963_PAINT.png"
		},
		{
			"mimeType":"image/png",
			"name":"7a4a144ebe59412dad482635c5cb3aa7_A_MCRC_GLASS",
			"uri":"7a4a144ebe59412dad482635c5cb3aa7_A_MCRC_GLASS.png"
		},
		{
			"mimeType":"image/png",
			"name":"41f7c164f7bb49e189da025577db99f5_R_MCRC_GLASS_SMOOTH",
			"uri":"41f7c164f7bb49e189da025577db99f5_R_MCRC_GLASS_SMOOTH.png"
		},
		{
			"mimeType":"image/png",
			"name":"488_SHADOW_baseColor",
			"uri":"488_SHADOW_baseColor.png"
		}
	],
	"accessors":[
		{
			"bufferView":0,
			"componentType":5126,
			"count":1364,
			"max":[
				12.561101913452148,
				12.216047286987305,
				2.6159169673919678
			],
			"min":[
				-12.216400146484375,
				-12.223699569702148,
				-3.731829881668091
			],
			"type":"VEC3"
		},
		{
			"bufferView":1,
			"componentType":5126,
			"count":1364,
			"type":"VEC3"
		},
		{
			"bufferView":2,
			"componentType":5126,
			"count":1364,
			"type":"VEC2"
		},
		{
			"bufferView":3,
			"componentType":5123,
			"count":2862,
			"type":"SCALAR"
		},
		{
			"bufferView":4,
			"componentType":5126,
			"count":1404,
			"max":[
				12.561101913452148,
				12.216047286987305,
				3.7317774295806885
			],
			"min":[
				-12.216400146484375,
				-12.223699569702148,
				-2.615989923477173
			],
			"type":"VEC3"
		},
		{
			"bufferView":5,
			"componentType":5126,
			"count":1404,
			"type":"VEC3"
		},
		{
			"bufferView":6,
			"componentType":5126,
			"count":1404,
			"type":"VEC2"
		},
		{
			"bufferView":7,
			"componentType":5123,
			"count":2862,
			"type":"SCALAR"
		},
		{
			"bufferView":8,
			"componentType":5126,
			"count":17562,
			"max":[
				49.101844787597656,
				111.48243713378906,
				64.2010726928711
			],
			"min":[
				-49.101898193359375,
				-100.39700317382812,
				2.618799924850464
			],
			"type":"VEC3"
		},
		{
			"bufferView":9,
			"componentType":5126,
			"count":17562,
			"type":"VEC3"
		},
		{
			"bufferView":10,
			"componentType":5126,
			"count":17562,
			"type":"VEC2"
		},
		{
			"bufferView":11,
			"componentType":5123,
			"count":81903,
			"type":"SCALAR"
		},
		{
			"bufferView":12,
			"componentType":5126,
			"count":16156,
			"max":[
				46.259666442871094,
				115.92909240722656,
				75.13825988769531
			],
			"min":[
				-46.2598876953125,
				-100.36397552490234,
				5.967597484588623
			],
			"type":"VEC3"
		},
		{
			"bufferView":13,
			"componentType":5126,
			"count":16156,
			"type":"VEC3"
		},
		{
			"bufferView":14,
			"componentType":5126,
			"count":16156,
			"type":"VEC2"
		},
		{
			"bufferView":15,
			"componentType":5123,
			"count":44196,
			"type":"SCALAR"
		},
		{
			"bufferView":16,
			"componentType":5126,
			"count":25753,
			"max":[
				49.101844787597656,
				115.92621612548828,
				66.6296157836914
			],
			"min":[
				-49.101898193359375,
				-100.98100280761719,
				3.8424999713897705
			],
			"type":"VEC3"
		},
		{
			"bufferView":17,
			"componentType":5126,
			"count":25753,
			"type":"VEC3"
		},
		{
			"bufferView":18,
			"componentType":5126,
			"count":25753,
			"type":"VEC2"
		},
		{
			"bufferView":19,
			"componentType":5123,
			"count":133737,
			"type":"SCALAR"
		},
		{
			"bufferView":20,
			"componentType":5126,
			"count":2636,
			"max":[
				11.541813850402832,
				11.541669845581055,
				2.383359909057617
			],
			"min":[
				-11.541999816894531,
				-11.54889965057373,
				-0.8380450010299683
			],
			"type":"VEC3"
		},
		{
			"bufferView":21,
			"componentType":5126,
			"count":2636,
			"type":"VEC3"
		},
		{
			"bufferView":22,
			"componentType":5126,
			"count":2636,
			"type":"VEC2"
		},
		{
			"bufferView":23,
			"componentType":5123,
			"count":5712,
			"type":"SCALAR"
		},
		{
			"bufferView":24,
			"componentType":5126,
			"count":14030,
			"max":[
				14.566960334777832,
				14.566960334777832,
				6.819391250610352
			],
			"min":[
				-14.566900253295898,
				-14.566900253295898,
				-6.9100799560546875
			],
			"type":"VEC3"
		},
		{
			"bufferView":25,
			"componentType":5126,
			"count":14030,
			"type":"VEC3"
		},
		{
			"bufferView":26,
			"componentType":5126,
			"count":14030,
			"type":"VEC2"
		},
		{
			"bufferView":27,
			"componentType":5123,
			"count":52572,
			"type":"SCALAR"
		},
		{
			"bufferView":28,
			"componentType":5126,
			"count":582,
			"max":[
				17.01850700378418,
				17.01850700378418,
				5.958132743835449
			],
			"min":[
				-17.018600463867188,
				-17.018600463867188,
				-5.9581298828125
			],
			"type":"VEC3"
		},
		{
			"bufferView":29,
			"componentType":5126,
			"count":582,
			"type":"VEC3"
		},
		{
			"bufferView":30,
			"componentType":5126,
			"count":582,
			"type":"VEC2"
		},
		{
			"bufferView":31,
			"componentType":5123,
			"count":2808,
			"type":"SCALAR"
		},
		{
			"bufferView":32,
			"componentType":5126,
			"count":2994,
			"max":[
				11.541813850402832,
				11.541669845581055,
				0.8380148410797119
			],
			"min":[
				-11.541999816894531,
				-11.54889965057373,
				-2.383389949798584
			],
			"type":"VEC3"
		},
		{
			"bufferView":33,
			"componentType":5126,
			"count":2994,
			"type":"VEC3"
		},
		{
			"bufferView":34,
			"componentType":5126,
			"count":2994,
			"type":"VEC2"
		},
		{
			"bufferView":35,
			"componentType":5123,
			"count":5712,
			"type":"SCALAR"
		},
		{
			"bufferView":36,
			"componentType":5126,
			"count":14071,
			"max":[
				14.566960334777832,
				14.566960334777832,
				6.9100213050842285
			],
			"min":[
				-14.566900253295898,
				-14.566900253295898,
				-6.8194499015808105
			],
			"type":"VEC3"
		},
		{
			"bufferView":37,
			"componentType":5126,
			"count":14071,
			"type":"VEC3"
		},
		{
			"bufferView":38,
			"componentType":5126,
			"count":14071,
			"type":"VEC2"
		},
		{
			"bufferView":39,
			"componentType":5123,
			"count":52572,
			"type":"SCALAR"
		},
		{
			"bufferView":40,
			"componentType":5126,
			"count":582,
			"max":[
				17.01850700378418,
				17.01850700378418,
				5.9581427574157715
			],
			"min":[
				-17.018600463867188,
				-17.018600463867188,
				-5.958139896392822
			],
			"type":"VEC3"
		},
		{
			"bufferView":41,
			"componentType":5126,
			"count":582,
			"type":"VEC3"
		},
		{
			"bufferView":42,
			"componentType":5126,
			"count":582,
			"type":"VEC2"
		},
		{
			"bufferView":43,
			"componentType":5123,
			"count":2808,
			"type":"SCALAR"
		},
		{
			"bufferView":44,
			"componentType":5126,
			"count":2636,
			"max":[
				11.541813850402832,
				11.541669845581055,
				2.383359909057617
			],
			"min":[
				-11.541999816894531,
				-11.54889965057373,
				-0.8380450010299683
			],
			"type":"VEC3"
		},
		{
			"bufferView":45,
			"componentType":5126,
			"count":2636,
			"type":"VEC3"
		},
		{
			"bufferView":46,
			"componentType":5126,
			"count":2636,
			"type":"VEC2"
		},
		{
			"bufferView":47,
			"componentType":5126,
			"count":13995,
			"max":[
				14.566960334777832,
				14.566960334777832,
				6.819385528564453
			],
			"min":[
				-14.566900253295898,
				-14.566900253295898,
				-9.846039772033691
			],
			"type":"VEC3"
		},
		{
			"bufferView":48,
			"componentType":5126,
			"count":13995,
			"type":"VEC3"
		},
		{
			"bufferView":49,
			"componentType":5126,
			"count":13995,
			"type":"VEC2"
		},
		{
			"bufferView":50,
			"componentType":5123,
			"count":52572,
			"type":"SCALAR"
		},
		{
			"bufferView":51,
			"componentType":5126,
			"count":582,
			"max":[
				16.560468673706055,
				16.560468673706055,
				5.797726154327393
			],
			"min":[
				-16.560400009155273,
				-16.560400009155273,
				-8.241479873657227
			],
			"type":"VEC3"
		},
		{
			"bufferView":52,
			"componentType":5126,
			"count":582,
			"type":"VEC3"
		},
		{
			"bufferView":53,
			"componentType":5126,
			"count":582,
			"type":"VEC2"
		},
		{
			"bufferView":54,
			"componentType":5126,
			"count":2994,
			"max":[
				11.541813850402832,
				11.541669845581055,
				0.8380148410797119
			],
			"min":[
				-11.541999816894531,
				-11.54889965057373,
				-2.383389949798584
			],
			"type":"VEC3"
		},
		{
			"bufferView":55,
			"componentType":5126,
			"count":2994,
			"type":"VEC3"
		},
		{
			"bufferView":56,
			"componentType":5126,
			"count":2994,
			"type":"VEC2"
		},
		{
			"bufferView":57,
			"componentType":5126,
			"count":14071,
			"max":[
				14.566960334777832,
				14.566960334777832,
				9.862316131591797
			],
			"min":[
				-14.566900253295898,
				-14.566900253295898,
				-6.8194499015808105
			],
			"type":"VEC3"
		},
		{
			"bufferView":58,
			"componentType":5126,
			"count":14071,
			"type":"VEC3"
		},
		{
			"bufferView":59,
			"componentType":5126,
			"count":14071,
			"type":"VEC2"
		},
		{
			"bufferView":60,
			"componentType":5126,
			"count":582,
			"max":[
				16.560468673706055,
				16.560468673706055,
				8.255160331726074
			],
			"min":[
				-16.560400009155273,
				-16.560400009155273,
				-5.7977399826049805
			],
			"type":"VEC3"
		},
		{
			"bufferView":61,
			"componentType":5126,
			"count":582,
			"type":"VEC3"
		},
		{
			"bufferView":62,
			"componentType":5126,
			"count":582,
			"type":"VEC2"
		},
		{
			"bufferView":63,
			"componentType":5126,
			"count":448,
			"max":[
				13.925673484802246,
				3.374138593673706,
				1.6375186443328857
			],
			"min":[
				-68.05770111083984,
				-0.5137900114059448,
				-7.509029865264893
			],
			"type":"VEC3"
		},
		{
			"bufferView":64,
			"componentType":5126,
			"count":448,
			"type":"VEC3"
		},
		{
			"bufferView":65,
			"componentType":5126,
			"count":448,
			"type":"VEC2"
		},
		{
			"bufferView":66,
			"componentType":5123,
			"count":1008,
			"type":"SCALAR"
		},
		{
			"bufferView":67,
			"componentType":5126,
			"count":688,
			"max":[
				42.721195220947266,
				7.683253288269043,
				55.20990753173828
			],
			"min":[
				-42.72138977050781,
				-99.3135986328125,
				18.915206909179688
			],
			"type":"VEC3"
		},
		{
			"bufferView":68,
			"componentType":5126,
			"count":688,
			"type":"VEC3"
		},
		{
			"bufferView":69,
			"componentType":5126,
			"count":688,
			"type":"VEC2"
		},
		{
			"bufferView":70,
			"componentType":5123,
			"count":3345,
			"type":"SCALAR"
		},
		{
			"bufferView":71,
			"componentType":5126,
			"count":1364,
			"max":[
				12.561101913452148,
				12.216047286987305,
				2.6159169673919678
			],
			"min":[
				-12.216400146484375,
				-12.223699569702148,
				-3.731829881668091
			],
			"type":"VEC3"
		},
		{
			"bufferView":72,
			"componentType":5126,
			"count":1364,
			"type":"VEC3"
		},
		{
			"bufferView":73,
			"componentType":5126,
			"count":1364,
			"type":"VEC2"
		},
		{
			"bufferView":74,
			"componentType":5126,
			"count":1404,
			"max":[
				12.561101913452148,
				12.216047286987305,
				3.7317774295806885
			],
			"min":[
				-12.216400146484375,
				-12.223699569702148,
				-2.615989923477173
			],
			"type":"VEC3"
		},
		{
			"bufferView":75,
			"componentType":5126,
			"count":1404,
			"type":"VEC3"
		},
		{
			"bufferView":76,
			"componentType":5126,
			"count":1404,
			"type":"VEC2"
		},
		{
			"bufferView":77,
			"componentType":5126,
			"count":648,
			"max":[
				14.304563522338867,
				7.987124919891357,
				5.395441055297852
			],
			"min":[
				-68.53199768066406,
				-3.5873498916625977,
				0.770654022693634
			],
			"type":"VEC3"
		},
		{
			"bufferView":78,
			"componentType":5126,
			"count":648,
			"type":"VEC3"
		},
		{
			"bufferView":79,
			"componentType":5126,
			"count":648,
			"type":"VEC2"
		},
		{
			"bufferView":80,
			"componentType":5123,
			"count":1392,
			"type":"SCALAR"
		},
		{
			"bufferView":81,
			"componentType":5126,
			"count":48,
			"max":[
				47.610755920410156,
				-24.02716827392578,
				47.80142593383789
			],
			"min":[
				-47.610801696777344,
				-26.697599411010742,
				45.01100158691406
			],
			"type":"VEC3"
		},
		{
			"bufferView":82,
			"componentType":5126,
			"count":48,
			"type":"VEC3"
		},
		{
			"bufferView":83,
			"componentType":5126,
			"count":48,
			"type":"VEC2"
		},
		{
			"bufferView":84,
			"componentType":5123,
			"count":156,
			"type":"SCALAR"
		},
		{
			"bufferView":85,
			"componentType":5126,
			"count":60,
			"max":[
				41.49760437011719,
				116.96282958984375,
				21.27016830444336
			],
			"min":[
				-41.49760055541992,
				110.11399841308594,
				20.288400650024414
			],
			"type":"VEC3"
		},
		{
			"bufferView":86,
			"componentType":5126,
			"count":60,
			"type":"VEC3"
		},
		{
			"bufferView":87,
			"componentType":5126,
			"count":60,
			"type":"VEC2"
		},
		{
			"bufferView":88,
			"componentType":5123,
			"count":168,
			"type":"SCALAR"
		},
		{
			"bufferView":89,
			"componentType":5126,
			"count":1344,
			"max":[
				91.87438201904297,
				10.699021339416504,
				0.12795402109622955
			],
			"min":[
				-0.15927399694919586,
				-7.017439842224121,
				0.0408019982278347
			],
			"type":"VEC3"
		},
		{
			"bufferView":90,
			"componentType":5126,
			"count":1344,
			"type":"VEC3"
		},
		{
			"bufferView":91,
			"componentType":5126,
			"count":1344,
			"type":"VEC2"
		},
		{
			"bufferView":92,
			"componentType":5123,
			"count":1344,
			"type":"SCALAR"
		},
		{
			"bufferView":93,
			"componentType":5126,
			"count":326,
			"max":[
				46.26313781738281,
				115.9317398071289,
				66.43827819824219
			],
			"min":[
				-46.263301849365234,
				114.90499877929688,
				47.26599884033203
			],
			"type":"VEC3"
		},
		{
			"bufferView":94,
			"componentType":5126,
			"count":326,
			"type":"VEC3"
		},
		{
			"bufferView":95,
			"componentType":5126,
			"count":326,
			"type":"VEC2"
		},
		{
			"bufferView":96,
			"componentType":5123,
			"count":1596,
			"type":"SCALAR"
		},
		{
			"bufferView":97,
			"componentType":5126,
			"count":336,
			"max":[
				1.6775448322296143,
				7.403202533721924,
				0.4453153610229492
			],
			"min":[
				-0.7588559985160828,
				-6.056580066680908,
				-0.4453200101852417
			],
			"type":"VEC3"
		},
		{
			"bufferView":98,
			"componentType":5126,
			"count":336,
			"type":"VEC3"
		},
		{
			"bufferView":99,
			"componentType":5126,
			"count":336,
			"type":"VEC2"
		},
		{
			"bufferView":100,
			"componentType":5123,
			"count":984,
			"type":"SCALAR"
		},
		{
			"bufferView":101,
			"componentType":5126,
			"count":426,
			"max":[
				0.609755277633667,
				1.7225067615509033,
				3.3049838542938232
			],
			"min":[
				-0.5990309715270996,
				-0.51603102684021,
				0
			],
			"type":"VEC3"
		},
		{
			"bufferView":102,
			"componentType":5126,
			"count":426,
			"type":"VEC3"
		},
		{
			"bufferView":103,
			"componentType":5126,
			"count":426,
			"type":"VEC2"
		},
		{
			"bufferView":104,
			"componentType":5123,
			"count":738,
			"type":"SCALAR"
		},
		{
			"bufferView":105,
			"componentType":5126,
			"count":216,
			"max":[
				2.376901865005493,
				14.865799903869629,
				0.6437059044837952
			],
			"min":[
				1.5975699424743652,
				-2.935689926147461,
				-0.3980390131473541
			],
			"type":"VEC3"
		},
		{
			"bufferView":106,
			"componentType":5126,
			"count":216,
			"type":"VEC3"
		},
		{
			"bufferView":107,
			"componentType":5126,
			"count":216,
			"type":"VEC2"
		},
		{
			"bufferView":108,
			"componentType":5123,
			"count":648,
			"type":"SCALAR"
		},
		{
			"bufferView":109,
			"componentType":5126,
			"count":4,
			"max":[
				196.8512725830078,
				196.8512725830078,
				0
			],
			"min":[
				-196.85000610351562,
				-196.85000610351562,
				0
			],
			"type":"VEC3"
		},
		{
			"bufferView":110,
			"componentType":5126,
			"count":4,
			"type":"VEC3"
		},
		{
			"bufferView":111,
			"componentType":5126,
			"count":4,
			"type":"VEC2"
		},
		{
			"bufferView":112,
			"componentType":5123,
			"count":6,
			"type":"SCALAR"
		}
	],
	"bufferViews":[
		{
			"buffer":0,
			"byteLength":16368,
			"byteOffset":0,
			"target":34962
		},
		{
			"buffer":0,
			"byteLength":16368,
			"byteOffset":16368,
			"target":34962
		},
		{
			"buffer":0,
			"byteLength":10912,
			"byteOffset":32736,
			"target":34962
		},
		{
			"buffer":0,
			"byteLength":5724,
			"byteOffset":43648,
			"target":34963
		},
		{
			"buffer":0,
			"byteLength":16848,
			"byteOffset":49372,
			"target":34962
		},
		{
			"buffer":0,
			"byteLength":16848,
			"byteOffset":66220,
			"target":34962
		},
		{
			"buffer":0,
			"byteLength":11232,
			"byteOffset":83068,
			"target":34962
		},
		{
			"buffer":0,
			"byteLength":5724,
			"byteOffset":94300,
			"target":34963
		},
		{
			"buffer":0,
			"byteLength":210744,
			"byteOffset":100024,
			"target":34962
		},
		{
			"buffer":0,
			"byteLength":210744,
			"byteOffset":310768,
			"target":34962
		},
		{
			"buffer":0,
			"byteLength":140496,
			"byteOffset":521512,
			"target":34962
		},
		{
			"buffer":0,
			"byteLength":163806,
			"byteOffset":662008,
			"target":34963
		},
		{
			"buffer":0,
			"byteLength":193872,
			"byteOffset":825816,
			"target":34962
		},
		{
			"buffer":0,
			"byteLength":193872,
			"byteOffset":1019688,
			"target":34962
		},
		{
			"buffer":0,
			"byteLength":129248,
			"byteOffset":1213560,
			"target":34962
		},
		{
			"buffer":0,
			"byteLength":88392,
			"byteOffset":1342808,
			"target":34963
		},
		{
			"buffer":0,
			"byteLength":309036,
			"byteOffset":1431200,
			"target":34962
		},
		{
			"buffer":0,
			"byteLength":309036,
			"byteOffset":1740236,
			"target":34962
		},
		{
			"buffer":0,
			"byteLength":206024,
			"byteOffset":2049272,
			"target":34962
		},
		{
			"buffer":0,
			"byteLength":267474,
			"byteOffset":2255296,
			"target":34963
		},
		{
			"buffer":0,
			"byteLength":31632,
			"byteOffset":2522772,
			"target":34962
		},
		{
			"buffer":0,
			"byteLength":31632,
			"byteOffset":2554404,
			"target":34962
		},
		{
			"buffer":0,
			"byteLength":21088,
			"byteOffset":2586036,
			"target":34962
		},
		{
			"buffer":0,
			"byteLength":11424,
			"byteOffset":2607124,
			"target":34963
		},
		{
			"buffer":0,
			"byteLength":168360,
			"byteOffset":2618548,
			"target":34962
		},
		{
			"buffer":0,
			"byteLength":168360,
			"byteOffset":2786908,
			"target":34962
		},
		{
			"buffer":0,
			"byteLength":112240,
			"byteOffset":2955268,
			"target":34962
		},
		{
			"buffer":0,
			"byteLength":105144,
			"byteOffset":3067508,
			"target":34963
		},
		{
			"buffer":0,
			"byteLength":6984,
			"byteOffset":3172652,
			"target":34962
		},
		{
			"buffer":0,
			"byteLength":6984,
			"byteOffset":3179636,
			"target":34962
		},
		{
			"buffer":0,
			"byteLength":4656,
			"byteOffset":3186620,
			"target":34962
		},
		{
			"buffer":0,
			"byteLength":5616,
			"byteOffset":3191276,
			"target":34963
		},
		{
			"buffer":0,
			"byteLength":35928,
			"byteOffset":3196892,
			"target":34962
		},
		{
			"buffer":0,
			"byteLength":35928,
			"byteOffset":3232820,
			"target":34962
		},
		{
			"buffer":0,
			"byteLength":23952,
			"byteOffset":3268748,
			"target":34962
		},
		{
			"buffer":0,
			"byteLength":11424,
			"byteOffset":3292700,
			"target":34963
		},
		{
			"buffer":0,
			"byteLength":168852,
			"byteOffset":3304124,
			"target":34962
		},
		{
			"buffer":0,
			"byteLength":168852,
			"byteOffset":3472976,
			"target":34962
		},
		{
			"buffer":0,
			"byteLength":112568,
			"byteOffset":3641828,
			"target":34962
		},
		{
			"buffer":0,
			"byteLength":105144,
			"byteOffset":3754396,
			"target":34963
		},
		{
			"buffer":0,
			"byteLength":6984,
			"byteOffset":3859540,
			"target":34962
		},
		{
			"buffer":0,
			"byteLength":6984,
			"byteOffset":3866524,
			"target":34962
		},
		{
			"buffer":0,
			"byteLength":4656,
			"byteOffset":3873508,
			"target":34962
		},
		{
			"buffer":0,
			"byteLength":5616,
			"byteOffset":3878164,
			"target":34963
		},
		{
			"buffer":0,
			"byteLength":31632,
			"byteOffset":3883780,
			"target":34962
		},
		{
			"buffer":0,
			"byteLength":31632,
			"byteOffset":3915412,
			"target":34962
		},
		{
			"buffer":0,
			"byteLength":21088,
			"byteOffset":3947044,
			"target":34962
		},
		{
			"buffer":0,
			"byteLength":167940,
			"byteOffset":3968132,
			"target":34962
		},
		{
			"buffer":0,
			"byteLength":167940,
			"byteOffset":4136072,
			"target":34962
		},
		{
			"buffer":0,
			"byteLength":111960,
			"byteOffset":4304012,
			"target":34962
		},
		{
			"buffer":0,
			"byteLength":105144,
			"byteOffset":4415972,
			"target":34963
		},
		{
			"buffer":0,
			"byteLength":6984,
			"byteOffset":4521116,
			"target":34962
		},
		{
			"buffer":0,
			"byteLength":6984,
			"byteOffset":4528100,
			"target":34962
		},
		{
			"buffer":0,
			"byteLength":4656,
			"byteOffset":4535084,
			"target":34962
		},
		{
			"buffer":0,
			"byteLength":35928,
			"byteOffset":4539740,
			"target":34962
		},
		{
			"buffer":0,
			"byteLength":35928,
			"byteOffset":4575668,
			"target":34962
		},
		{
			"buffer":0,
			"byteLength":23952,
			"byteOffset":4611596,
			"target":34962
		},
		{
			"buffer":0,
			"byteLength":168852,
			"byteOffset":4635548,
			"target":34962
		},
		{
			"buffer":0,
			"byteLength":168852,
			"byteOffset":4804400,
			"target":34962
		},
		{
			"buffer":0,
			"byteLength":112568,
			"byteOffset":4973252,
			"target":34962
		},
		{
			"buffer":0,
			"byteLength":6984,
			"byteOffset":5085820,
			"target":34962
		},
		{
			"buffer":0,
			"byteLength":6984,
			"byteOffset":5092804,
			"target":34962
		},
		{
			"buffer":0,
			"byteLength":4656,
			"byteOffset":5099788,
			"target":34962
		},
		{
			"buffer":0,
			"byteLength":5376,
			"byteOffset":5104444,
			"target":34962
		},
		{
			"buffer":0,
			"byteLength":5376,
			"byteOffset":5109820,
			"target":34962
		},
		{
			"buffer":0,
			"byteLength":3584,
			"byteOffset":5115196,
			"target":34962
		},
		{
			"buffer":0,
			"byteLength":2016,
			"byteOffset":5118780,
			"target":34963
		},
		{
			"buffer":0,
			"byteLength":8256,
			"byteOffset":5120796,
			"target":34962
		},
		{
			"buffer":0,
			"byteLength":8256,
			"byteOffset":5129052,
			"target":34962
		},
		{
			"buffer":0,
			"byteLength":5504,
			"byteOffset":5137308,
			"target":34962
		},
		{
			"buffer":0,
			"byteLength":6690,
			"byteOffset":5142812,
			"target":34963
		},
		{
			"buffer":0,
			"byteLength":16368,
			"byteOffset":5149504,
			"target":34962
		},
		{
			"buffer":0,
			"byteLength":16368,
			"byteOffset":5165872,
			"target":34962
		},
		{
			"buffer":0,
			"byteLength":10912,
			"byteOffset":5182240,
			"target":34962
		},
		{
			"buffer":0,
			"byteLength":16848,
			"byteOffset":5193152,
			"target":34962
		},
		{
			"buffer":0,
			"byteLength":16848,
			"byteOffset":5210000,
			"target":34962
		},
		{
			"buffer":0,
			"byteLength":11232,
			"byteOffset":5226848,
			"target":34962
		},
		{
			"buffer":0,
			"byteLength":7776,
			"byteOffset":5238080,
			"target":34962
		},
		{
			"buffer":0,
			"byteLength":7776,
			"byteOffset":5245856,
			"target":34962
		},
		{
			"buffer":0,
			"byteLength":5184,
			"byteOffset":5253632,
			"target":34962
		},
		{
			"buffer":0,
			"byteLength":2784,
			"byteOffset":5258816,
			"target":34963
		},
		{
			"buffer":0,
			"byteLength":576,
			"byteOffset":5261600,
			"target":34962
		},
		{
			"buffer":0,
			"byteLength":576,
			"byteOffset":5262176,
			"target":34962
		},
		{
			"buffer":0,
			"byteLength":384,
			"byteOffset":5262752,
			"target":34962
		},
		{
			"buffer":0,
			"byteLength":312,
			"byteOffset":5263136,
			"target":34963
		},
		{
			"buffer":0,
			"byteLength":720,
			"byteOffset":5263448,
			"target":34962
		},
		{
			"buffer":0,
			"byteLength":720,
			"byteOffset":5264168,
			"target":34962
		},
		{
			"buffer":0,
			"byteLength":480,
			"byteOffset":5264888,
			"target":34962
		},
		{
			"buffer":0,
			"byteLength":336,
			"byteOffset":5265368,
			"target":34963
		},
		{
			"buffer":0,
			"byteLength":16128,
			"byteOffset":5265704,
			"target":34962
		},
		{
			"buffer":0,
			"byteLength":16128,
			"byteOffset":5281832,
			"target":34962
		},
		{
			"buffer":0,
			"byteLength":10752,
			"byteOffset":5297960,
			"target":34962
		},
		{
			"buffer":0,
			"byteLength":2688,
			"byteOffset":5308712,
			"target":34963
		},
		{
			"buffer":0,
			"byteLength":3912,
			"byteOffset":5311400,
			"target":34962
		},
		{
			"buffer":0,
			"byteLength":3912,
			"byteOffset":5315312,
			"target":34962
		},
		{
			"buffer":0,
			"byteLength":2608,
			"byteOffset":5319224,
			"target":34962
		},
		{
			"buffer":0,
			"byteLength":3192,
			"byteOffset":5321832,
			"target":34963
		},
		{
			"buffer":0,
			"byteLength":4032,
			"byteOffset":5325024,
			"target":34962
		},
		{
			"buffer":0,
			"byteLength":4032,
			"byteOffset":5329056,
			"target":34962
		},
		{
			"buffer":0,
			"byteLength":2688,
			"byteOffset":5333088,
			"target":34962
		},
		{
			"buffer":0,
			"byteLength":1968,
			"byteOffset":5335776,
			"target":34963
		},
		{
			"buffer":0,
			"byteLength":5112,
			"byteOffset":5337744,
			"target":34962
		},
		{
			"buffer":0,
			"byteLength":5112,
			"byteOffset":5342856,
			"target":34962
		},
		{
			"buffer":0,
			"byteLength":3408,
			"byteOffset":5347968,
			"target":34962
		},
		{
			"buffer":0,
			"byteLength":1476,
			"byteOffset":5351376,
			"target":34963
		},
		{
			"buffer":0,
			"byteLength":2592,
			"byteOffset":5352852,
			"target":34962
		},
		{
			"buffer":0,
			"byteLength":2592,
			"byteOffset":5355444,
			"target":34962
		},
		{
			"buffer":0,
			"byteLength":1728,
			"byteOffset":5358036,
			"target":34962
		},
		{
			"buffer":0,
			"byteLength":1296,
			"byteOffset":5359764,
			"target":34963
		},
		{
			"buffer":0,
			"byteLength":48,
			"byteOffset":5361060,
			"target":34962
		},
		{
			"buffer":0,
			"byteLength":48,
			"byteOffset":5361108,
			"target":34962
		},
		{
			"buffer":0,
			"byteLength":32,
			"byteOffset":5361156,
			"target":34962
		},
		{
			"buffer":0,
			"byteLength":12,
			"byteOffset":5361188,
			"target":34963
		}
	],
	"samplers":[
		{
			"magFilter":9729,
			"minFilter":9987
		}
	],
	"buffers":[
		{
			"byteLength":5361200,
			"uri":"RaceCar_RedWhite.bin"
		}
	]
}
