{
	"asset":{
		"generator":"Khronos glTF Blender I/O v4.5.49",
		"version":"2.0"
	},
	"extensionsUsed":[
		"KHR_materials_clearcoat",
		"KHR_materials_specular"
	],
	"scene":0,
	"scenes":[
		{
			"name":"Scene",
			"nodes":[
				49
			]
		}
	],
	"nodes":[
		{
			"mesh":0,
			"name":"_gltfNode_0"
		},
		{
			"mesh":1,
			"name":"_gltfNode_1"
		},
		{
			"children":[
				1
			],
			"name":"node_blinkers_etc_-3084_4",
			"rotation":[
				0,
				0.7071068286895752,
				0,
				0.7071067094802856
			]
		},
		{
			"mesh":2,
			"name":"_gltfNode_3"
		},
		{
			"children":[
				3
			],
			"name":"node_CHROME_-3086_5",
			"rotation":[
				0,
				0.7071068286895752,
				0,
				0.7071067094802856
			]
		},
		{
			"mesh":3,
			"name":"_gltfNode_5"
		},
		{
			"children":[
				5
			],
			"name":"node_front_lamp_glass_-3088_6",
			"rotation":[
				0,
				0.7071068286895752,
				0,
				0.7071067094802856
			]
		},
		{
			"mesh":4,
			"name":"_gltfNode_7"
		},
		{
			"mesh":5,
			"name":"_gltfNode_8"
		},
		{
			"children":[
				8
			],
			"name":"node_door_left_-3110_17"
		},
		{
			"mesh":6,
			"name":"_gltfNode_10"
		},
		{
			"children":[
				10
			],
			"name":"node_left_door_chrome_-3112_18"
		},
		{
			"mesh":7,
			"name":"_gltfNode_12"
		},
		{
			"children":[
				12
			],
			"name":"node_left_door_glass_-3114_19"
		},
		{
			"children":[
				7,
				9,
				11,
				13
			],
			"name":"node_left_door_paint_-3072_2",
			"translation":[
				-0.8865370750427246,
				0.7535930275917053,
				-0.640457034111023
			]
		},
		{
			"mesh":8,
			"name":"_gltfNode_15"
		},
		{
			"mesh":9,
			"name":"_gltfNode_16"
		},
		{
			"mesh":10,
			"name":"_gltfNode_17"
		},
		{
			"children":[
				17
			],
			"name":"node_steering chrome_-3154_23"
		},
		{
			"children":[
				16,
				18
			],
			"name":"node_steering_wheel_-3100_12",
			"rotation":[
				0,
				0.9396927952766418,
				-0.3420197665691376,
				1.199241665972295e-07
			],
			"translation":[
				0.3766050338745117,
				0.9636780023574829,
				-0.38135501742362976
			]
		},
		{
			"mesh":11,
			"name":"_gltfNode_20"
		},
		{
			"mesh":12,
			"name":"_gltfNode_21"
		},
		{
			"children":[
				21
			],
			"name":"node_rimLF_-3140_21"
		},
		{
			"children":[
				20,
				22
			],
			"name":"node_wheel_LF_-3102_13",
			"translation":[
				-0.7206159830093384,
				0.27889499068260193,
				-1.0828200578689575
			]
		},
		{
			"mesh":13,
			"name":"_gltfNode_24"
		},
		{
			"mesh":14,
			"name":"_gltfNode_25"
		},
		{
			"children":[
				25
			],
			"name":"node_rimLR_-3134_20"
		},
		{
			"children":[
				24,
				26
			],
			"name":"node_wheel_LR_-3104_14",
			"translation":[
				-0.7206160426139832,
				0.27889499068260193,
				1.0134600400924683
			]
		},
		{
			"mesh":15,
			"name":"_gltfNode_28"
		},
		{
			"mesh":16,
			"name":"_gltfNode_29"
		},
		{
			"children":[
				29
			],
			"name":"node_rimRF_-3158_24"
		},
		{
			"children":[
				28,
				30
			],
			"name":"node_wheel_RF_-3106_15",
			"translation":[
				0.7210000157356262,
				0.27889499068260193,
				-1.0828200578689575
			]
		},
		{
			"mesh":17,
			"name":"_gltfNode_32"
		},
		{
			"mesh":18,
			"name":"_gltfNode_33"
		},
		{
			"children":[
				33
			],
			"name":"node_rimRR_-3148_22"
		},
		{
			"children":[
				32,
				34
			],
			"name":"node_wheel_RR_-3108_16",
			"translation":[
				0.720999002456665,
				0.27889499068260193,
				1.0134601593017578
			]
		},
		{
			"children":[
				15,
				19,
				23,
				27,
				31,
				35
			],
			"name":"node_main body_-3090_7"
		},
		{
			"mesh":19,
			"name":"_gltfNode_37"
		},
		{
			"mesh":20,
			"name":"_gltfNode_38"
		},
		{
			"children":[
				38
			],
			"name":"node_door_right_-3094_9"
		},
		{
			"mesh":21,
			"name":"_gltfNode_40"
		},
		{
			"children":[
				40
			],
			"name":"node_right_door_chrome_-3096_10"
		},
		{
			"mesh":22,
			"name":"_gltfNode_42"
		},
		{
			"children":[
				42
			],
			"name":"node_right_door_glass_-3098_11"
		},
		{
			"children":[
				37,
				39,
				41,
				43
			],
			"name":"node_right_door_paint_-3074_3",
			"translation":[
				0.8863880634307861,
				0.7535939812660217,
				-0.6404569745063782
			]
		},
		{
			"mesh":23,
			"name":"_gltfNode_45"
		},
		{
			"children":[
				45
			],
			"name":"node_window_glass_-3092_8",
			"rotation":[
				0,
				0.7071068286895752,
				0,
				0.7071067094802856
			]
		},
		{
			"children":[
				0,
				2,
				4,
				6,
				14,
				36,
				44,
				46
			],
			"name":"node_FROG_HI_-3042_1",
			"rotation":[
				0,
				-0.7071068286895752,
				0,
				0.7071067094802856
			]
		},
		{
			"children":[
				47
			],
			"name":"UnityGlTF_root_0"
		},
		{
			"children":[
				48
			],
			"name":"GLTF_SceneRootNode",
			"rotation":[
				0,
				-0.7070791721343994,
				0,
				0.7071343660354614
			]
		}
	],
	"animations":[
		{
			"channels":[
				{
					"sampler":0,
					"target":{
						"node":14,
						"path":"rotation"
					}
				},
				{
					"sampler":1,
					"target":{
						"node":44,
						"path":"rotation"
					}
				}
			],
			"name":"FROG_HI",
			"samplers":[
				{
					"input":90,
					"interpolation":"LINEAR",
					"output":91
				},
				{
					"input":90,
					"interpolation":"LINEAR",
					"output":92
				}
			]
		}
	],
	"materials":[
		{
			"doubleSided":true,
			"extensions":{
				"KHR_materials_clearcoat":{
					"clearcoatFactor":1,
					"clearcoatRoughnessFactor":0.03999999910593033
				},
				"KHR_materials_specular":{
					"specularFactor":0
				}
			},
			"name":"paint.001",
			"occlusionTexture":{
				"index":0
			},
			"pbrMetallicRoughness":{
				"baseColorTexture":{
					"index":1
				},
				"metallicFactor":0,
				"metallicRoughnessTexture":{
					"index":0
				},
				"roughnessFactor":0
			}
		},
		{
			"doubleSided":true,
			"name":"paint",
			"pbrMetallicRoughness":{
				"baseColorTexture":{
					"index":2
				},
				"metallicFactor":0,
				"roughnessFactor":0.5
			}
		},
		{
			"alphaMode":"BLEND",
			"doubleSided":true,
			"name":"488_GLASS",
			"pbrMetallicRoughness":{
				"baseColorFactor":[
					0.0076843989081680775,
					0.10610657185316086,
					0.1410743147134781,
					0.07771452516317368
				],
				"metallicFactor":0,
				"roughnessFactor":0
			}
		}
	],
	"meshes":[
		{
			"name":"Mesh_0",
			"primitives":[
				{
					"attributes":{
						"POSITION":0,
						"NORMAL":1,
						"TEXCOORD_0":2
					},
					"indices":3,
					"material":0
				}
			]
		},
		{
			"name":"Mesh_1",
			"primitives":[
				{
					"attributes":{
						"POSITION":4,
						"NORMAL":5,
						"TEXCOORD_0":6
					},
					"indices":7,
					"material":1
				}
			]
		},
		{
			"name":"Mesh_2",
			"primitives":[
				{
					"attributes":{
						"POSITION":8,
						"NORMAL":9,
						"TEXCOORD_0":10
					},
					"indices":11,
					"material":1
				}
			]
		},
		{
			"name":"Mesh_3",
			"primitives":[
				{
					"attributes":{
						"POSITION":12,
						"NORMAL":13,
						"TEXCOORD_0":14
					},
					"indices":15,
					"material":1
				}
			]
		},
		{
			"name":"Mesh_4",
			"primitives":[
				{
					"attributes":{
						"POSITION":16,
						"NORMAL":17,
						"TEXCOORD_0":18
					},
					"indices":19,
					"material":0
				}
			]
		},
		{
			"name":"Mesh_5",
			"primitives":[
				{
					"attributes":{
						"POSITION":20,
						"NORMAL":21,
						"TEXCOORD_0":22
					},
					"indices":23,
					"material":1
				}
			]
		},
		{
			"name":"Mesh_6",
			"primitives":[
				{
					"attributes":{
						"POSITION":24,
						"NORMAL":25,
						"TEXCOORD_0":26
					},
					"indices":27,
					"material":1
				}
			]
		},
		{
			"name":"Mesh_7",
			"primitives":[
				{
					"attributes":{
						"POSITION":28,
						"NORMAL":29,
						"TEXCOORD_0":30
					},
					"indices":31,
					"material":2
				}
			]
		},
		{
			"name":"Mesh_8",
			"primitives":[
				{
					"attributes":{
						"POSITION":32,
						"NORMAL":33,
						"TEXCOORD_0":34
					},
					"indices":35,
					"material":1
				}
			]
		},
		{
			"name":"Mesh_9",
			"primitives":[
				{
					"attributes":{
						"POSITION":36,
						"NORMAL":37,
						"TEXCOORD_0":38
					},
					"indices":39,
					"material":1
				}
			]
		},
		{
			"name":"Mesh_10",
			"primitives":[
				{
					"attributes":{
						"POSITION":40,
						"NORMAL":41,
						"TEXCOORD_0":42
					},
					"indices":43,
					"material":1
				}
			]
		},
		{
			"name":"Mesh_11",
			"primitives":[
				{
					"attributes":{
						"POSITION":44,
						"NORMAL":45,
						"TEXCOORD_0":46
					},
					"indices":47,
					"material":1
				}
			]
		},
		{
			"name":"Mesh_12",
			"primitives":[
				{
					"attributes":{
						"POSITION":48,
						"NORMAL":49,
						"TEXCOORD_0":50
					},
					"indices":51,
					"material":1
				}
			]
		},
		{
			"name":"Mesh_13",
			"primitives":[
				{
					"attributes":{
						"POSITION":52,
						"NORMAL":53,
						"TEXCOORD_0":54
					},
					"indices":47,
					"material":1
				}
			]
		},
		{
			"name":"Mesh_14",
			"primitives":[
				{
					"attributes":{
						"POSITION":55,
						"NORMAL":56,
						"TEXCOORD_0":57
					},
					"indices":51,
					"material":1
				}
			]
		},
		{
			"name":"Mesh_15",
			"primitives":[
				{
					"attributes":{
						"POSITION":58,
						"NORMAL":59,
						"TEXCOORD_0":60
					},
					"indices":47,
					"material":1
				}
			]
		},
		{
			"name":"Mesh_16",
			"primitives":[
				{
					"attributes":{
						"POSITION":61,
						"NORMAL":62,
						"TEXCOORD_0":63
					},
					"indices":51,
					"material":1
				}
			]
		},
		{
			"name":"Mesh_17",
			"primitives":[
				{
					"attributes":{
						"POSITION":64,
						"NORMAL":65,
						"TEXCOORD_0":66
					},
					"indices":47,
					"material":1
				}
			]
		},
		{
			"name":"Mesh_18",
			"primitives":[
				{
					"attributes":{
						"POSITION":67,
						"NORMAL":68,
						"TEXCOORD_0":69
					},
					"indices":51,
					"material":1
				}
			]
		},
		{
			"name":"Mesh_19",
			"primitives":[
				{
					"attributes":{
						"POSITION":70,
						"NORMAL":71,
						"TEXCOORD_0":72
					},
					"indices":73,
					"material":0
				}
			]
		},
		{
			"name":"Mesh_20",
			"primitives":[
				{
					"attributes":{
						"POSITION":74,
						"NORMAL":75,
						"TEXCOORD_0":76
					},
					"indices":77,
					"material":1
				}
			]
		},
		{
			"name":"Mesh_21",
			"primitives":[
				{
					"attributes":{
						"POSITION":78,
						"NORMAL":79,
						"TEXCOORD_0":80
					},
					"indices":81,
					"material":1
				}
			]
		},
		{
			"name":"Mesh_22",
			"primitives":[
				{
					"attributes":{
						"POSITION":82,
						"NORMAL":83,
						"TEXCOORD_0":84
					},
					"indices":85,
					"material":2
				}
			]
		},
		{
			"name":"Mesh_23",
			"primitives":[
				{
					"attributes":{
						"POSITION":86,
						"NORMAL":87,
						"TEXCOORD_0":88
					},
					"indices":89,
					"material":2
				}
			]
		}
	],
	"textures":[
		{
			"sampler":0,
			"source":0
		},
		{
			"sampler":0,
			"source":0
		},
		{
			"sampler":0,
			"source":0
		}
	],
	"images":[
		{
			"mimeType":"image/jpeg",
			"name":"f5de413faf2a4f05bf44142c703545ec_RGB_FROG_4096",
			"uri":"f5de413faf2a4f05bf44142c703545ec_RGB_FROG_4096.jpg"
		}
	],
	"accessors":[
		{
			"bufferView":0,
			"componentType":5126,
			"count":3475,
			"max":[
				0.9073765277862549,
				1.8179807662963867,
				1.508038878440857
			],
			"min":[
				-0.9073799848556519,
				0.10359899699687958,
				-1.5662699937820435
			],
			"type":"VEC3"
		},
		{
			"bufferView":1,
			"componentType":5126,
			"count":3475,
			"type":"VEC3"
		},
		{
			"bufferView":2,
			"componentType":5126,
			"count":3475,
			"type":"VEC2"
		},
		{
			"bufferView":3,
			"componentType":5123,
			"count":11796,
			"type":"SCALAR"
		},
		{
			"bufferView":4,
			"componentType":5126,
			"count":608,
			"max":[
				1.5603851079940796,
				0.8611595034599304,
				0.9111226797103882
			],
			"min":[
				-1.5245558023452759,
				0.49827808141708374,
				-0.9110763669013977
			],
			"type":"VEC3"
		},
		{
			"bufferView":5,
			"componentType":5126,
			"count":608,
			"type":"VEC3"
		},
		{
			"bufferView":6,
			"componentType":5126,
			"count":608,
			"type":"VEC2"
		},
		{
			"bufferView":7,
			"componentType":5123,
			"count":1656,
			"type":"SCALAR"
		},
		{
			"bufferView":8,
			"componentType":5126,
			"count":6199,
			"max":[
				1.6438907384872437,
				1.6881898641586304,
				0.9357026219367981
			],
			"min":[
				-1.5874500274658203,
				0.07166370004415512,
				-0.9357119798660278
			],
			"type":"VEC3"
		},
		{
			"bufferView":9,
			"componentType":5126,
			"count":6199,
			"type":"VEC3"
		},
		{
			"bufferView":10,
			"componentType":5126,
			"count":6199,
			"type":"VEC2"
		},
		{
			"bufferView":11,
			"componentType":5123,
			"count":15312,
			"type":"SCALAR"
		},
		{
			"bufferView":12,
			"componentType":5126,
			"count":148,
			"max":[
				1.7073076963424683,
				0.9806029796600342,
				0.8285895586013794
			],
			"min":[
				1.5758600234985352,
				0.43096300959587097,
				-0.8285899758338928
			],
			"type":"VEC3"
		},
		{
			"bufferView":13,
			"componentType":5126,
			"count":148,
			"type":"VEC3"
		},
		{
			"bufferView":14,
			"componentType":5126,
			"count":148,
			"type":"VEC2"
		},
		{
			"bufferView":15,
			"componentType":5123,
			"count":720,
			"type":"SCALAR"
		},
		{
			"bufferView":16,
			"componentType":5126,
			"count":392,
			"max":[
				0.2260943055152893,
				0.9026622772216797,
				1.1026915311813354
			],
			"min":[
				-0.011423200368881226,
				-0.48560699820518494,
				0.014772499911487103
			],
			"type":"VEC3"
		},
		{
			"bufferView":17,
			"componentType":5126,
			"count":392,
			"type":"VEC3"
		},
		{
			"bufferView":18,
			"componentType":5126,
			"count":392,
			"type":"VEC2"
		},
		{
			"bufferView":19,
			"componentType":5123,
			"count":1008,
			"type":"SCALAR"
		},
		{
			"bufferView":20,
			"componentType":5126,
			"count":327,
			"max":[
				0.23611041903495789,
				0.8838378190994263,
				1.058558702468872
			],
			"min":[
				-0.007120260037481785,
				-0.4413900077342987,
				0.042685799300670624
			],
			"type":"VEC3"
		},
		{
			"bufferView":21,
			"componentType":5126,
			"count":327,
			"type":"VEC3"
		},
		{
			"bufferView":22,
			"componentType":5126,
			"count":327,
			"type":"VEC2"
		},
		{
			"bufferView":23,
			"componentType":5123,
			"count":924,
			"type":"SCALAR"
		},
		{
			"bufferView":24,
			"componentType":5126,
			"count":447,
			"max":[
				0.2075851559638977,
				0.4317994713783264,
				1.078230857849121
			],
			"min":[
				-0.10983700305223465,
				-0.11760099977254868,
				0.07163090258836746
			],
			"type":"VEC3"
		},
		{
			"bufferView":25,
			"componentType":5126,
			"count":447,
			"type":"VEC3"
		},
		{
			"bufferView":26,
			"componentType":5126,
			"count":447,
			"type":"VEC2"
		},
		{
			"bufferView":27,
			"componentType":5123,
			"count":924,
			"type":"SCALAR"
		},
		{
			"bufferView":28,
			"componentType":5126,
			"count":106,
			"max":[
				0.20130039751529694,
				0.8838034272193909,
				1.0056087970733643
			],
			"min":[
				0.12699900567531586,
				0.371163010597229,
				0.0769134983420372
			],
			"type":"VEC3"
		},
		{
			"bufferView":29,
			"componentType":5126,
			"count":106,
			"type":"VEC3"
		},
		{
			"bufferView":30,
			"componentType":5126,
			"count":106,
			"type":"VEC2"
		},
		{
			"bufferView":31,
			"componentType":5123,
			"count":228,
			"type":"SCALAR"
		},
		{
			"bufferView":32,
			"componentType":5126,
			"count":7778,
			"max":[
				0.8979599475860596,
				1.7293589115142822,
				1.5080403089523315
			],
			"min":[
				-0.8979600071907043,
				0.10359799861907959,
				-1.6810799837112427
			],
			"type":"VEC3"
		},
		{
			"bufferView":33,
			"componentType":5126,
			"count":7778,
			"type":"VEC3"
		},
		{
			"bufferView":34,
			"componentType":5126,
			"count":7778,
			"type":"VEC2"
		},
		{
			"bufferView":35,
			"componentType":5123,
			"count":21054,
			"type":"SCALAR"
		},
		{
			"bufferView":36,
			"componentType":5126,
			"count":300,
			"max":[
				0.22000060975551605,
				0.22000060975551605,
				0.019999917596578598
			],
			"min":[
				-0.2199999988079071,
				-0.2199999988079071,
				-0.020000100135803223
			],
			"type":"VEC3"
		},
		{
			"bufferView":37,
			"componentType":5126,
			"count":300,
			"type":"VEC3"
		},
		{
			"bufferView":38,
			"componentType":5126,
			"count":300,
			"type":"VEC2"
		},
		{
			"bufferView":39,
			"componentType":5123,
			"count":960,
			"type":"SCALAR"
		},
		{
			"bufferView":40,
			"componentType":5126,
			"count":503,
			"max":[
				0.18475684523582458,
				0.06179322674870491,
				0.002862101187929511
			],
			"min":[
				-0.18425199389457703,
				-0.18862299621105194,
				-0.010283200070261955
			],
			"type":"VEC3"
		},
		{
			"bufferView":41,
			"componentType":5126,
			"count":503,
			"type":"VEC3"
		},
		{
			"bufferView":42,
			"componentType":5126,
			"count":503,
			"type":"VEC2"
		},
		{
			"bufferView":43,
			"componentType":5123,
			"count":1656,
			"type":"SCALAR"
		},
		{
			"bufferView":44,
			"componentType":5126,
			"count":296,
			"max":[
				-0.0014255479909479618,
				0.28173989057540894,
				0.28173989057540894
			],
			"min":[
				-0.20022200047969818,
				-0.2817460000514984,
				-0.2817460000514984
			],
			"type":"VEC3"
		},
		{
			"bufferView":45,
			"componentType":5126,
			"count":296,
			"type":"VEC3"
		},
		{
			"bufferView":46,
			"componentType":5126,
			"count":296,
			"type":"VEC2"
		},
		{
			"bufferView":47,
			"componentType":5123,
			"count":1014,
			"type":"SCALAR"
		},
		{
			"bufferView":48,
			"componentType":5126,
			"count":194,
			"max":[
				-0.17211765050888062,
				0.19833794236183167,
				0.19833794236183167
			],
			"min":[
				-0.2284729927778244,
				-0.1983419954776764,
				-0.1983419954776764
			],
			"type":"VEC3"
		},
		{
			"bufferView":49,
			"componentType":5126,
			"count":194,
			"type":"VEC3"
		},
		{
			"bufferView":50,
			"componentType":5126,
			"count":194,
			"type":"VEC2"
		},
		{
			"bufferView":51,
			"componentType":5123,
			"count":894,
			"type":"SCALAR"
		},
		{
			"bufferView":52,
			"componentType":5126,
			"count":296,
			"max":[
				-0.0014255479909479618,
				0.28173989057540894,
				0.28173989057540894
			],
			"min":[
				-0.20022200047969818,
				-0.2817460000514984,
				-0.2817460000514984
			],
			"type":"VEC3"
		},
		{
			"bufferView":53,
			"componentType":5126,
			"count":296,
			"type":"VEC3"
		},
		{
			"bufferView":54,
			"componentType":5126,
			"count":296,
			"type":"VEC2"
		},
		{
			"bufferView":55,
			"componentType":5126,
			"count":194,
			"max":[
				-0.17211765050888062,
				0.19833794236183167,
				0.19833794236183167
			],
			"min":[
				-0.2284729927778244,
				-0.1983419954776764,
				-0.1983419954776764
			],
			"type":"VEC3"
		},
		{
			"bufferView":56,
			"componentType":5126,
			"count":194,
			"type":"VEC3"
		},
		{
			"bufferView":57,
			"componentType":5126,
			"count":194,
			"type":"VEC2"
		},
		{
			"bufferView":58,
			"componentType":5126,
			"count":296,
			"max":[
				0.20022055506706238,
				0.28173989057540894,
				0.28173989057540894
			],
			"min":[
				0.0014241000171750784,
				-0.2817460000514984,
				-0.2817460000514984
			],
			"type":"VEC3"
		},
		{
			"bufferView":59,
			"componentType":5126,
			"count":296,
			"type":"VEC3"
		},
		{
			"bufferView":60,
			"componentType":5126,
			"count":296,
			"type":"VEC2"
		},
		{
			"bufferView":61,
			"componentType":5126,
			"count":194,
			"max":[
				0.22847233712673187,
				0.19833794236183167,
				0.19833794236183167
			],
			"min":[
				0.17211699485778809,
				-0.1983419954776764,
				-0.1983419954776764
			],
			"type":"VEC3"
		},
		{
			"bufferView":62,
			"componentType":5126,
			"count":194,
			"type":"VEC3"
		},
		{
			"bufferView":63,
			"componentType":5126,
			"count":194,
			"type":"VEC2"
		},
		{
			"bufferView":64,
			"componentType":5126,
			"count":296,
			"max":[
				0.20022055506706238,
				0.28173989057540894,
				0.28173989057540894
			],
			"min":[
				0.0014241000171750784,
				-0.2817460000514984,
				-0.2817460000514984
			],
			"type":"VEC3"
		},
		{
			"bufferView":65,
			"componentType":5126,
			"count":296,
			"type":"VEC3"
		},
		{
			"bufferView":66,
			"componentType":5126,
			"count":296,
			"type":"VEC2"
		},
		{
			"bufferView":67,
			"componentType":5126,
			"count":194,
			"max":[
				0.22847233712673187,
				0.19833794236183167,
				0.19833794236183167
			],
			"min":[
				0.17211699485778809,
				-0.1983419954776764,
				-0.1983419954776764
			],
			"type":"VEC3"
		},
		{
			"bufferView":68,
			"componentType":5126,
			"count":194,
			"type":"VEC3"
		},
		{
			"bufferView":69,
			"componentType":5126,
			"count":194,
			"type":"VEC2"
		},
		{
			"bufferView":70,
			"componentType":5126,
			"count":388,
			"max":[
				0.011535551398992538,
				0.9024125933647156,
				1.1025999784469604
			],
			"min":[
				-0.22598400712013245,
				-0.48561298847198486,
				0.014767399989068508
			],
			"type":"VEC3"
		},
		{
			"bufferView":71,
			"componentType":5126,
			"count":388,
			"type":"VEC3"
		},
		{
			"bufferView":72,
			"componentType":5126,
			"count":388,
			"type":"VEC2"
		},
		{
			"bufferView":73,
			"componentType":5123,
			"count":1008,
			"type":"SCALAR"
		},
		{
			"bufferView":74,
			"componentType":5126,
			"count":347,
			"max":[
				0.007242167834192514,
				0.8836377859115601,
				1.058431625366211
			],
			"min":[
				-0.23596300184726715,
				-0.44159001111984253,
				0.0425586998462677
			],
			"type":"VEC3"
		},
		{
			"bufferView":75,
			"componentType":5126,
			"count":347,
			"type":"VEC3"
		},
		{
			"bufferView":76,
			"componentType":5126,
			"count":347,
			"type":"VEC2"
		},
		{
			"bufferView":77,
			"componentType":5123,
			"count":924,
			"type":"SCALAR"
		},
		{
			"bufferView":78,
			"componentType":5126,
			"count":448,
			"max":[
				0.10998515039682388,
				0.4317994713783264,
				1.0782307386398315
			],
			"min":[
				-0.20743699371814728,
				-0.11760099977254868,
				0.0716307982802391
			],
			"type":"VEC3"
		},
		{
			"bufferView":79,
			"componentType":5126,
			"count":448,
			"type":"VEC3"
		},
		{
			"bufferView":80,
			"componentType":5126,
			"count":448,
			"type":"VEC2"
		},
		{
			"bufferView":81,
			"componentType":5123,
			"count":924,
			"type":"SCALAR"
		},
		{
			"bufferView":82,
			"componentType":5126,
			"count":100,
			"max":[
				-0.1268514096736908,
				0.8838034272193909,
				1.0056086778640747
			],
			"min":[
				-0.2011529952287674,
				0.371163010597229,
				0.07691340148448944
			],
			"type":"VEC3"
		},
		{
			"bufferView":83,
			"componentType":5126,
			"count":100,
			"type":"VEC3"
		},
		{
			"bufferView":84,
			"componentType":5126,
			"count":100,
			"type":"VEC2"
		},
		{
			"bufferView":85,
			"componentType":5123,
			"count":228,
			"type":"SCALAR"
		},
		{
			"bufferView":86,
			"componentType":5126,
			"count":733,
			"max":[
				0.7412309646606445,
				1.6628323793411255,
				0.7595375776290894
			],
			"min":[
				-1.3058099746704102,
				1.1247600317001343,
				-0.7595369815826416
			],
			"type":"VEC3"
		},
		{
			"bufferView":87,
			"componentType":5126,
			"count":733,
			"type":"VEC3"
		},
		{
			"bufferView":88,
			"componentType":5126,
			"count":733,
			"type":"VEC2"
		},
		{
			"bufferView":89,
			"componentType":5123,
			"count":1836,
			"type":"SCALAR"
		},
		{
			"bufferView":90,
			"componentType":5126,
			"count":480,
			"max":[
				19.958333333333332
			],
			"min":[
				0
			],
			"type":"SCALAR"
		},
		{
			"bufferView":91,
			"componentType":5126,
			"count":480,
			"type":"VEC4"
		},
		{
			"bufferView":92,
			"componentType":5126,
			"count":480,
			"type":"VEC4"
		}
	],
	"bufferViews":[
		{
			"buffer":0,
			"byteLength":41700,
			"byteOffset":0,
			"target":34962
		},
		{
			"buffer":0,
			"byteLength":41700,
			"byteOffset":41700,
			"target":34962
		},
		{
			"buffer":0,
			"byteLength":27800,
			"byteOffset":83400,
			"target":34962
		},
		{
			"buffer":0,
			"byteLength":23592,
			"byteOffset":111200,
			"target":34963
		},
		{
			"buffer":0,
			"byteLength":7296,
			"byteOffset":134792,
			"target":34962
		},
		{
			"buffer":0,
			"byteLength":7296,
			"byteOffset":142088,
			"target":34962
		},
		{
			"buffer":0,
			"byteLength":4864,
			"byteOffset":149384,
			"target":34962
		},
		{
			"buffer":0,
			"byteLength":3312,
			"byteOffset":154248,
			"target":34963
		},
		{
			"buffer":0,
			"byteLength":74388,
			"byteOffset":157560,
			"target":34962
		},
		{
			"buffer":0,
			"byteLength":74388,
			"byteOffset":231948,
			"target":34962
		},
		{
			"buffer":0,
			"byteLength":49592,
			"byteOffset":306336,
			"target":34962
		},
		{
			"buffer":0,
			"byteLength":30624,
			"byteOffset":355928,
			"target":34963
		},
		{
			"buffer":0,
			"byteLength":1776,
			"byteOffset":386552,
			"target":34962
		},
		{
			"buffer":0,
			"byteLength":1776,
			"byteOffset":388328,
			"target":34962
		},
		{
			"buffer":0,
			"byteLength":1184,
			"byteOffset":390104,
			"target":34962
		},
		{
			"buffer":0,
			"byteLength":1440,
			"byteOffset":391288,
			"target":34963
		},
		{
			"buffer":0,
			"byteLength":4704,
			"byteOffset":392728,
			"target":34962
		},
		{
			"buffer":0,
			"byteLength":4704,
			"byteOffset":397432,
			"target":34962
		},
		{
			"buffer":0,
			"byteLength":3136,
			"byteOffset":402136,
			"target":34962
		},
		{
			"buffer":0,
			"byteLength":2016,
			"byteOffset":405272,
			"target":34963
		},
		{
			"buffer":0,
			"byteLength":3924,
			"byteOffset":407288,
			"target":34962
		},
		{
			"buffer":0,
			"byteLength":3924,
			"byteOffset":411212,
			"target":34962
		},
		{
			"buffer":0,
			"byteLength":2616,
			"byteOffset":415136,
			"target":34962
		},
		{
			"buffer":0,
			"byteLength":1848,
			"byteOffset":417752,
			"target":34963
		},
		{
			"buffer":0,
			"byteLength":5364,
			"byteOffset":419600,
			"target":34962
		},
		{
			"buffer":0,
			"byteLength":5364,
			"byteOffset":424964,
			"target":34962
		},
		{
			"buffer":0,
			"byteLength":3576,
			"byteOffset":430328,
			"target":34962
		},
		{
			"buffer":0,
			"byteLength":1848,
			"byteOffset":433904,
			"target":34963
		},
		{
			"buffer":0,
			"byteLength":1272,
			"byteOffset":435752,
			"target":34962
		},
		{
			"buffer":0,
			"byteLength":1272,
			"byteOffset":437024,
			"target":34962
		},
		{
			"buffer":0,
			"byteLength":848,
			"byteOffset":438296,
			"target":34962
		},
		{
			"buffer":0,
			"byteLength":456,
			"byteOffset":439144,
			"target":34963
		},
		{
			"buffer":0,
			"byteLength":93336,
			"byteOffset":439600,
			"target":34962
		},
		{
			"buffer":0,
			"byteLength":93336,
			"byteOffset":532936,
			"target":34962
		},
		{
			"buffer":0,
			"byteLength":62224,
			"byteOffset":626272,
			"target":34962
		},
		{
			"buffer":0,
			"byteLength":42108,
			"byteOffset":688496,
			"target":34963
		},
		{
			"buffer":0,
			"byteLength":3600,
			"byteOffset":730604,
			"target":34962
		},
		{
			"buffer":0,
			"byteLength":3600,
			"byteOffset":734204,
			"target":34962
		},
		{
			"buffer":0,
			"byteLength":2400,
			"byteOffset":737804,
			"target":34962
		},
		{
			"buffer":0,
			"byteLength":1920,
			"byteOffset":740204,
			"target":34963
		},
		{
			"buffer":0,
			"byteLength":6036,
			"byteOffset":742124,
			"target":34962
		},
		{
			"buffer":0,
			"byteLength":6036,
			"byteOffset":748160,
			"target":34962
		},
		{
			"buffer":0,
			"byteLength":4024,
			"byteOffset":754196,
			"target":34962
		},
		{
			"buffer":0,
			"byteLength":3312,
			"byteOffset":758220,
			"target":34963
		},
		{
			"buffer":0,
			"byteLength":3552,
			"byteOffset":761532,
			"target":34962
		},
		{
			"buffer":0,
			"byteLength":3552,
			"byteOffset":765084,
			"target":34962
		},
		{
			"buffer":0,
			"byteLength":2368,
			"byteOffset":768636,
			"target":34962
		},
		{
			"buffer":0,
			"byteLength":2028,
			"byteOffset":771004,
			"target":34963
		},
		{
			"buffer":0,
			"byteLength":2328,
			"byteOffset":773032,
			"target":34962
		},
		{
			"buffer":0,
			"byteLength":2328,
			"byteOffset":775360,
			"target":34962
		},
		{
			"buffer":0,
			"byteLength":1552,
			"byteOffset":777688,
			"target":34962
		},
		{
			"buffer":0,
			"byteLength":1788,
			"byteOffset":779240,
			"target":34963
		},
		{
			"buffer":0,
			"byteLength":3552,
			"byteOffset":781028,
			"target":34962
		},
		{
			"buffer":0,
			"byteLength":3552,
			"byteOffset":784580,
			"target":34962
		},
		{
			"buffer":0,
			"byteLength":2368,
			"byteOffset":788132,
			"target":34962
		},
		{
			"buffer":0,
			"byteLength":2328,
			"byteOffset":790500,
			"target":34962
		},
		{
			"buffer":0,
			"byteLength":2328,
			"byteOffset":792828,
			"target":34962
		},
		{
			"buffer":0,
			"byteLength":1552,
			"byteOffset":795156,
			"target":34962
		},
		{
			"buffer":0,
			"byteLength":3552,
			"byteOffset":796708,
			"target":34962
		},
		{
			"buffer":0,
			"byteLength":3552,
			"byteOffset":800260,
			"target":34962
		},
		{
			"buffer":0,
			"byteLength":2368,
			"byteOffset":803812,
			"target":34962
		},
		{
			"buffer":0,
			"byteLength":2328,
			"byteOffset":806180,
			"target":34962
		},
		{
			"buffer":0,
			"byteLength":2328,
			"byteOffset":808508,
			"target":34962
		},
		{
			"buffer":0,
			"byteLength":1552,
			"byteOffset":810836,
			"target":34962
		},
		{
			"buffer":0,
			"byteLength":3552,
			"byteOffset":812388,
			"target":34962
		},
		{
			"buffer":0,
			"byteLength":3552,
			"byteOffset":815940,
			"target":34962
		},
		{
			"buffer":0,
			"byteLength":2368,
			"byteOffset":819492,
			"target":34962
		},
		{
			"buffer":0,
			"byteLength":2328,
			"byteOffset":821860,
			"target":34962
		},
		{
			"buffer":0,
			"byteLength":2328,
			"byteOffset":824188,
			"target":34962
		},
		{
			"buffer":0,
			"byteLength":1552,
			"byteOffset":826516,
			"target":34962
		},
		{
			"buffer":0,
			"byteLength":4656,
			"byteOffset":828068,
			"target":34962
		},
		{
			"buffer":0,
			"byteLength":4656,
			"byteOffset":832724,
			"target":34962
		},
		{
			"buffer":0,
			"byteLength":3104,
			"byteOffset":837380,
			"target":34962
		},
		{
			"buffer":0,
			"byteLength":2016,
			"byteOffset":840484,
			"target":34963
		},
		{
			"buffer":0,
			"byteLength":4164,
			"byteOffset":842500,
			"target":34962
		},
		{
			"buffer":0,
			"byteLength":4164,
			"byteOffset":846664,
			"target":34962
		},
		{
			"buffer":0,
			"byteLength":2776,
			"byteOffset":850828,
			"target":34962
		},
		{
			"buffer":0,
			"byteLength":1848,
			"byteOffset":853604,
			"target":34963
		},
		{
			"buffer":0,
			"byteLength":5376,
			"byteOffset":855452,
			"target":34962
		},
		{
			"buffer":0,
			"byteLength":5376,
			"byteOffset":860828,
			"target":34962
		},
		{
			"buffer":0,
			"byteLength":3584,
			"byteOffset":866204,
			"target":34962
		},
		{
			"buffer":0,
			"byteLength":1848,
			"byteOffset":869788,
			"target":34963
		},
		{
			"buffer":0,
			"byteLength":1200,
			"byteOffset":871636,
			"target":34962
		},
		{
			"buffer":0,
			"byteLength":1200,
			"byteOffset":872836,
			"target":34962
		},
		{
			"buffer":0,
			"byteLength":800,
			"byteOffset":874036,
			"target":34962
		},
		{
			"buffer":0,
			"byteLength":456,
			"byteOffset":874836,
			"target":34963
		},
		{
			"buffer":0,
			"byteLength":8796,
			"byteOffset":875292,
			"target":34962
		},
		{
			"buffer":0,
			"byteLength":8796,
			"byteOffset":884088,
			"target":34962
		},
		{
			"buffer":0,
			"byteLength":5864,
			"byteOffset":892884,
			"target":34962
		},
		{
			"buffer":0,
			"byteLength":3672,
			"byteOffset":898748,
			"target":34963
		},
		{
			"buffer":0,
			"byteLength":1920,
			"byteOffset":902420
		},
		{
			"buffer":0,
			"byteLength":7680,
			"byteOffset":904340
		},
		{
			"buffer":0,
			"byteLength":7680,
			"byteOffset":912020
		}
	],
	"samplers":[
		{
			"magFilter":9729,
			"minFilter":9987
		}
	],
	"buffers":[
		{
			"byteLength":919700,
			"uri":"Mini.bin"
		}
	]
}
